<svg id="Capa_1" enable-background="new 0 0 512 512" height="512" viewBox="0 0 512 512" width="512" xmlns="http://www.w3.org/2000/svg"><g><g><path d="m73.738 10c-23.843 0-43.172 19.329-43.172 43.172v405.657c0 23.843 19.329 43.172 43.172 43.172h364.524c23.843 0 43.172-19.329 43.172-43.172v-405.657c0-23.843-19.329-43.172-43.172-43.172z" fill="#a0e4a5"/></g><g><path d="m368.081 348.317h-223.03c-18.73 0-33.914-15.184-33.914-33.914v-223.03c0-18.73 15.184-33.914 33.914-33.914h223.03c18.73 0 33.914 15.184 33.914 33.914v223.03c0 18.73-15.184 33.914-33.914 33.914z" fill="#fff"/></g><g><path d="m212.09 273.581-44.115-44.116c-7.81-7.811-7.81-20.474 0-28.284 7.93-7.392 20.434-7.851 28.285 0l31.9 31.9 88.217-88.217c7.81-7.811 20.474-7.811 28.284 0 7.811 7.811 7.811 20.474 0 28.285l-100.433 100.432c-8.874 8.875-23.263 8.875-32.138 0z" fill="#868eaf"/></g><g><path d="m309.305 137.793-81.146 81.146-24.828-24.829c-11.697-11.697-30.73-11.696-42.428 0-11.697 11.697-11.697 30.73 0 42.427l44.115 44.115c12.773 12.387 33.554 12.727 46.281 0l100.432-100.432c11.696-11.697 11.696-30.73 0-42.427-11.698-11.697-30.73-11.695-42.426 0zm28.284 28.285-100.432 100.432c-4.856 4.857-13.157 4.913-17.996 0l-44.115-44.116c-3.899-3.899-3.899-10.243 0-14.142 3.858-3.859 10.285-3.858 14.143 0l31.899 31.9c3.856 3.855 10.286 3.855 14.143 0l88.217-88.216c3.897-3.898 10.242-3.9 14.142 0 3.898 3.898 3.898 10.243-.001 14.142z"/><path d="m248.33 13.82c2.065 5.037 8.042 7.498 13.06 5.41 5.033-2.094 7.493-8.007 5.41-13.05-2.079-5.034-8.027-7.497-13.06-5.41-5.025 2.084-7.506 8.019-5.41 13.05z"/><path d="m318.996 407.055c5.522 0 10-4.477 10-10s-4.478-10-10-10h-24.927c-5.522 0-10 4.477-10 10v59.157c0 5.523 4.478 10 10 10h24.927c5.522 0 10-4.477 10-10s-4.478-10-10-10h-14.927v-9.579h13.089c5.522 0 10-4.477 10-10s-4.478-10-10-10h-13.089v-9.579h14.927z"/><path d="m168.245 406.509c3.979 0 7.815 1.17 11.093 3.384 4.574 3.092 10.793 1.889 13.884-2.688 3.092-4.576 1.888-10.792-2.688-13.884-6.597-4.457-14.304-6.812-22.288-6.812-21.975 0-39.852 17.877-39.852 39.852s17.877 39.851 39.852 39.851c10.158 0 19.895-4.162 26.468-12 3.55-4.231 2.997-10.539-1.234-14.088-4.229-3.549-10.539-2.999-14.088 1.234-2.787 3.321-6.865 4.854-11.146 4.854-10.946 0-19.852-8.905-19.852-19.851s8.905-19.852 19.851-19.852z"/><path d="m243.35 406.509c3.979 0 7.815 1.17 11.093 3.384 4.574 3.092 10.792 1.889 13.884-2.688 3.092-4.576 1.888-10.792-2.688-13.884-6.597-4.457-14.304-6.812-22.288-6.812-21.975 0-39.852 17.877-39.852 39.852s17.877 39.851 39.852 39.851c10.159 0 19.894-4.16 26.467-12 3.55-4.231 2.997-10.539-1.234-14.088-4.229-3.549-10.539-2.999-14.088 1.234-2.789 3.32-6.863 4.854-11.145 4.854-10.946 0-19.852-8.905-19.852-19.851-.001-10.946 8.904-19.852 19.851-19.852z"/><path d="m429.74 466.212c5.522 0 10-4.477 10-10v-49.703h6.486c5.522 0 10-4.477 10-10s-4.478-10-10-10h-32.972c-5.522 0-10 4.477-10 10s4.478 10 10 10h6.485v49.703c.001 5.523 4.479 10 10.001 10z"/><path d="m438.263 0h-137.759c-5.522 0-10 4.477-10 10s4.478 10 10 10h137.759c18.29 0 33.171 14.881 33.171 33.172v405.657c0 18.291-14.881 33.171-33.171 33.171h-364.526c-18.29 0-33.171-14.881-33.171-33.172v-405.656c0-18.291 14.881-33.172 33.171-33.172h138.774c5.522 0 10-4.477 10-10s-4.478-10-10-10h-138.774c-29.318 0-53.171 23.853-53.171 53.172v405.656c0 29.319 23.853 53.172 53.171 53.172h364.525c29.318 0 53.171-23.853 53.171-53.171v-405.657c.001-29.319-23.852-53.172-53.17-53.172z"/><path d="m368.081 47.458h-223.03c-24.214 0-43.914 19.7-43.914 43.914v223.03c0 24.214 19.7 43.914 43.914 43.914h223.03c24.214 0 43.914-19.7 43.914-43.914v-223.029c0-24.215-19.7-43.915-43.914-43.915zm23.914 266.945c0 13.186-10.728 23.914-23.914 23.914h-223.03c-13.187 0-23.914-10.728-23.914-23.914v-223.03c0-13.186 10.728-23.914 23.914-23.914h223.03c13.187 0 23.914 10.728 23.914 23.914z"/><path d="m102.134 389.529c-1.774-4.307-5.928-7.088-10.585-7.088-.004 0-.009 0-.013 0-4.662.005-8.816 2.797-10.582 7.111-.031.076-.062.152-.09.229l-23.982 62.97c-1.966 5.161.624 10.938 5.785 12.904 5.162 1.964 10.939-.625 12.904-5.786l3.52-9.242h24.729l3.477 9.213c1.9 5.037 7.841 7.727 12.887 5.825 5.167-1.95 7.774-7.72 5.824-12.887l-23.765-62.972c-.035-.092-.071-.185-.109-.277zm-15.426 41.098 4.803-12.612 4.76 12.612z"/><path d="m351.942 385.994c-5.449 0-10 4.552-10 10v60.316c0 5.523 4.478 10 10 10s10-4.477 10-10v-16.252c2.612-.012 5.158-.021 6.795-.021 15.083 0 27.354-12.122 27.354-27.021s-12.271-27.021-27.354-27.021h-16.795zm24.15 27.021c0 3.806-3.368 7.021-7.354 7.021-1.625 0-4.141.009-6.731.021-.012-2.711-.027-11.212-.034-14.063h6.766c3.985 0 7.353 3.215 7.353 7.021z"/></g></g></svg>