<svg version="1.1" id="Capa_1" xmlns="http://www.w3.org/2000/svg" xmlns:xlink="http://www.w3.org/1999/xlink" x="0px" y="0px" viewBox="0 0 512.016 512.016" style="enable-background:new 0 0 512.016 512.016;" xml:space="preserve">
<g>
	<path style="fill:#F2F6FC;" d="M351.008,426h-190c-22.091,0-40-17.909-40-40V126c0-22.091,17.909-40,40-40h190&#10;&#9;&#9;c22.091,0,40,17.909,40,40v260C391.008,408.091,373.099,426,351.008,426z"/>
	<path style="fill:#DCE1EB;" d="M221.008,386V126c0-22.091,17.909-40,40-40h-100c-22.091,0-40,17.909-40,40v260&#10;&#9;&#9;c0,22.091,17.909,40,40,40h100C238.917,426,221.008,408.091,221.008,386z"/>
	<path style="fill:#74B552;" d="M221.008,126h-40c-11.046,0-20,8.954-20,20v40c0,11.046,8.954,20,20,20h40V126z"/>
	<g>
		<path style="fill:#81C661;" d="M221.008,126c-11.046,0-20,8.954-20,20v40c0,11.046,8.954,20,20,20s20-8.954,20-20v-40&#10;&#9;&#9;&#9;C241.008,134.954,232.053,126,221.008,126z"/>
	</g>
	<path style="fill:#FF9696;" d="M161.6,356.114c-35.143-15.619-63.592,16.177-63.592,16.177s-28.449-31.796-63.592-16.177&#10;&#9;&#9;c-35.143,15.619-35.143,67.497-3.905,102.082c19.247,21.309,40.399,35.206,53.803,42.736c8.507,4.779,18.88,4.779,27.388,0&#10;&#9;&#9;c13.404-7.53,34.556-21.427,53.803-42.736C196.743,423.61,196.743,371.733,161.6,356.114z"/>
	<circle style="fill:#FFDF61;" cx="97.37" cy="97.362" r="89.862"/>
	<path style="fill:#FFD154;" d="M83.156,97.362c0-36.113,21.313-67.232,52.038-81.514C123.695,10.503,110.886,7.5,97.37,7.5&#10;&#9;&#9;C47.74,7.5,7.508,47.733,7.508,97.362c0,49.629,40.233,89.862,89.862,89.862c13.516,0,26.325-3.003,37.824-8.348&#10;&#9;&#9;C104.469,164.594,83.156,133.475,83.156,97.362z"/>
	<path style="fill:#90D6F2;" d="M464.73,7.5h-60c-22.091,0-40,17.909-40,40v27.973c0,15.387-9.411,29.049-23.599,35.004&#10;&#9;&#9;c-0.08,0.033-0.16,0.067-0.24,0.101c-21.198,9.022-32.381,30.436-24.978,47.829c7.403,17.393,30.588,24.179,51.786,15.157&#10;&#9;&#9;c15.927-6.779,26.198-20.553,27.183-34.361h0.001v-0.012c0.098-1.387,0-70.825,0-70.825c0-5.917,4.797-10.713,10.713-10.713h19.134&#10;&#9;&#9;L464.73,7.5z"/>
	<g>
		<path style="fill:#A8E1F6;" d="M504.464,47.5c0-22.047-17.837-39.924-39.867-39.997c-22.03,0.072-39.867,17.95-39.867,39.997&#10;&#9;&#9;&#9;v10.152h38.868c5.917,0,10.713,4.797,10.713,10.713v7.108c0,15.387-9.411,29.049-23.599,35.004c-0.08,0.033-0.16,0.067-0.24,0.101&#10;&#9;&#9;&#9;c-21.198,9.022-32.381,30.436-24.978,47.829c7.403,17.393,30.588,24.179,51.786,15.157c15.927-6.779,26.198-20.553,27.183-34.361&#10;&#9;&#9;&#9;h0v-0.012C504.562,137.804,504.464,47.5,504.464,47.5z"/>
	</g>
	<path style="fill:#41416D;" d="M297.677,383.695v84.124c0,20.258,40.909,36.681,91.373,36.681&#10;&#9;&#9;c50.464,0,91.373-16.423,91.373-36.681v-84.124H297.677z"/>
	<path style="fill:#313159;" d="M374.008,480.63v-96.935h-76.331v84.124c0,20.258,40.909,36.681,91.372,36.681&#10;&#9;&#9;c0.751,0,1.499-0.004,2.245-0.011C380.351,497.595,374.008,489.41,374.008,480.63z"/>
	<path style="fill:#515181;" d="M360.183,358.194l-73.412,24.76c-17.574,5.927-17.574,30.783,0,36.71l73.412,24.76&#10;&#9;&#9;c18.726,6.316,39.006,6.316,57.732,0l73.412-24.76c17.574-5.927,17.574-30.783,0-36.71l-73.412-24.76&#10;&#9;&#9;C399.19,351.879,378.909,351.879,360.183,358.194z"/>
	<path style="fill:#FF7D81;" d="M98.008,372.29c0,0-28.449-31.796-63.592-16.177c-35.143,15.619-35.143,67.497-3.905,102.082&#10;&#9;&#9;c19.247,21.309,40.399,35.206,53.803,42.736c8.507,4.779,18.88,4.779,27.388,0c5.176-2.908,11.515-6.777,18.446-11.644&#10;&#9;&#9;C102.193,471.449,68.008,405.78,98.008,372.29z"/>
	<g>
		
			<line style="fill:none;stroke:#000000;stroke-width:15;stroke-linecap:round;stroke-linejoin:round;stroke-miterlimit:10;" x1="161.008" y1="286.098" x2="351.008" y2="286.098"/>
		
			<line style="fill:none;stroke:#000000;stroke-width:15;stroke-linecap:round;stroke-linejoin:round;stroke-miterlimit:10;" x1="201.008" y1="326.098" x2="311.008" y2="326.098"/>
		
			<line style="fill:none;stroke:#000000;stroke-width:15;stroke-linecap:round;stroke-linejoin:round;stroke-miterlimit:10;" x1="161.008" y1="246.098" x2="351.008" y2="246.098"/>
		<path style="fill:none;stroke:#000000;stroke-width:15;stroke-linecap:round;stroke-linejoin:round;stroke-miterlimit:10;" d="&#10;&#9;&#9;&#9;M161.902,159.347c-12.221-17.585-19.384-38.948-19.384-61.985c0-22.522,6.846-43.444,18.572-60.8"/>
		<path style="fill:none;stroke:#000000;stroke-width:15;stroke-linecap:round;stroke-linejoin:round;stroke-miterlimit:10;" d="&#10;&#9;&#9;&#9;M31.736,158.754C43.957,141.17,51.12,119.806,51.12,96.769c0-22.522-6.847-43.444-18.572-60.8"/>
		
			<line style="fill:none;stroke:#000000;stroke-width:15;stroke-linecap:round;stroke-linejoin:round;stroke-miterlimit:10;" x1="97.37" y1="7.5" x2="97.37" y2="187.224"/>
		<path style="fill:none;stroke:#000000;stroke-width:15;stroke-linecap:round;stroke-linejoin:round;stroke-miterlimit:10;" d="&#10;&#9;&#9;&#9;M12.684,100.182C36.94,83.325,66.41,73.443,98.187,73.443c31.067,0,59.928,9.444,83.869,25.618"/>
		
			<line style="fill:none;stroke:#000000;stroke-width:15;stroke-linecap:round;stroke-linejoin:round;stroke-miterlimit:10;" x1="121.008" y1="228.598" x2="121.008" y2="187.224"/>
		
			<line style="fill:none;stroke:#000000;stroke-width:15;stroke-linecap:round;stroke-linejoin:round;stroke-miterlimit:10;" x1="121.008" y1="353.458" x2="121.008" y2="263.598"/>
		
			<line style="fill:none;stroke:#000000;stroke-width:15;stroke-linecap:round;stroke-linejoin:round;stroke-miterlimit:10;" x1="295.559" y1="426" x2="187.232" y2="426"/>
		
			<line style="fill:none;stroke:#000000;stroke-width:15;stroke-linecap:round;stroke-linejoin:round;stroke-miterlimit:10;" x1="391.008" y1="154.693" x2="391.008" y2="351.798"/>
		<path style="fill:none;stroke:#000000;stroke-width:15;stroke-linecap:round;stroke-linejoin:round;stroke-miterlimit:10;" d="&#10;&#9;&#9;&#9;M188.467,86h162.54c4.055,0,7.968,0.603,11.656,1.725"/>
		<path style="fill:none;stroke:#000000;stroke-width:15;stroke-linecap:round;stroke-linejoin:round;stroke-miterlimit:10;" d="&#10;&#9;&#9;&#9;M183.486,126h37.522c11.046,0,20,8.954,20,20v40c0,11.046-8.954,20-20,20h-40c-11.046,0-20-8.954-20-20v-24.316"/>
		<path style="fill:none;stroke:#000000;stroke-width:15;stroke-linecap:round;stroke-linejoin:round;stroke-miterlimit:10;" d="&#10;&#9;&#9;&#9;M161.6,356.114c-35.143-15.619-63.592,16.177-63.592,16.177s-28.449-31.796-63.592-16.177&#10;&#9;&#9;&#9;c-35.143,15.619-35.143,67.497-3.905,102.082c19.247,21.309,40.399,35.206,53.803,42.736c8.507,4.779,18.88,4.779,27.388,0&#10;&#9;&#9;&#9;c13.404-7.53,34.556-21.427,53.803-42.736C196.743,423.61,196.743,371.733,161.6,356.114z"/>
		
			<circle style="fill:none;stroke:#000000;stroke-width:15;stroke-linecap:round;stroke-linejoin:round;stroke-miterlimit:10;" cx="97.37" cy="97.362" r="89.862"/>
		<path style="fill:none;stroke:#000000;stroke-width:15;stroke-linecap:round;stroke-linejoin:round;stroke-miterlimit:10;" d="&#10;&#9;&#9;&#9;M504.464,47.5c0-22.091-17.909-40-40-40H404.73c-22.091,0-40,17.909-40,40v27.973c0,15.387-9.411,29.049-23.599,35.004&#10;&#9;&#9;&#9;c-0.08,0.034-0.16,0.067-0.24,0.101c-21.198,9.022-32.381,30.436-24.978,47.829s30.588,24.179,51.786,15.157&#10;&#9;&#9;&#9;c15.927-6.779,26.198-20.553,27.183-34.361h0.001v-0.012c0.098-1.387,0-70.825,0-70.825c0-5.917,4.797-10.713,10.713-10.713&#10;&#9;&#9;&#9;h58.002c5.917,0,10.713,4.797,10.713,10.713v7.108c0,15.387-9.411,29.049-23.599,35.004c-0.08,0.034-0.16,0.067-0.24,0.101&#10;&#9;&#9;&#9;c-21.198,9.022-32.381,30.436-24.978,47.829c7.403,17.393,30.588,24.179,51.786,15.157c15.927-6.779,26.198-20.553,27.183-34.361&#10;&#9;&#9;&#9;h0.001v-0.012C504.562,137.804,504.464,47.5,504.464,47.5z"/>
		<path style="fill:none;stroke:#000000;stroke-width:15;stroke-linecap:round;stroke-linejoin:round;stroke-miterlimit:10;" d="&#10;&#9;&#9;&#9;M297.677,426v41.819c0,20.258,40.909,36.681,91.373,36.681c50.464,0,91.373-16.423,91.373-36.681V426"/>
		<path style="fill:none;stroke:#000000;stroke-width:15;stroke-linecap:round;stroke-linejoin:round;stroke-miterlimit:10;" d="&#10;&#9;&#9;&#9;M427.857,361.548l-9.942-3.353c-18.726-6.316-39.006-6.316-57.732,0l-73.412,24.76c-17.574,5.927-17.574,30.783,0,36.71&#10;&#9;&#9;&#9;l73.412,24.76c18.726,6.316,39.006,6.316,57.732,0l73.412-24.76c17.574-5.927,17.574-30.783,0-36.71l-30.3-10.219"/>
	</g>
</g>
<g>
</g>
<g>
</g>
<g>
</g>
<g>
</g>
<g>
</g>
<g>
</g>
<g>
</g>
<g>
</g>
<g>
</g>
<g>
</g>
<g>
</g>
<g>
</g>
<g>
</g>
<g>
</g>
<g>
</g>
</svg>