<svg xmlns="http://www.w3.org/2000/svg" xmlns:xlink="http://www.w3.org/1999/xlink" width="400" zoomAndPan="magnify" viewBox="0 0 300 37.5" height="50" preserveAspectRatio="xMidYMid meet" version="1.0"><defs><g/><clipPath id="e1b2f6aeaa"><path d="M 26 14 L 32 14 L 32 36.230469 L 26 36.230469 Z M 26 14 " clip-rule="nonzero"/></clipPath><clipPath id="52a1a0f7cd"><path d="M 33 0.703125 L 38.980469 0.703125 L 38.980469 28 L 33 28 Z M 33 0.703125 " clip-rule="nonzero"/></clipPath></defs><path fill="#0f4d92" d="M 6.097656 21.441406 L 10.941406 22.660156 L 10.941406 10.472656 L 6.097656 9.25 Z M 6.097656 21.441406 " fill-opacity="1" fill-rule="nonzero"/><path fill="#000000" d="M 13.019531 17.777344 L 17.863281 18.996094 L 17.863281 5.585938 L 13.019531 4.367188 Z M 13.019531 17.777344 " fill-opacity="1" fill-rule="nonzero"/><path fill="#0f4d92" d="M 19.953125 26.097656 L 24.796875 27.316406 L 24.796875 11.453125 L 19.953125 10.234375 Z M 19.953125 26.097656 " fill-opacity="1" fill-rule="nonzero"/><g clip-path="url(#e1b2f6aeaa)"><path fill="#0f4d92" d="M 26.886719 35.089844 L 31.726562 36.308594 L 31.726562 15.5625 L 26.886719 14.339844 Z M 26.886719 35.089844 " fill-opacity="1" fill-rule="nonzero"/></g><g clip-path="url(#52a1a0f7cd)"><path fill="#000000" d="M 33.808594 0.691406 L 33.808594 26.324219 L 38.652344 27.542969 L 38.652344 1.914062 Z M 33.808594 0.691406 " fill-opacity="1" fill-rule="nonzero"/></g><g fill="#000000" fill-opacity="1"><g transform="translate(49.408002, 28.496356)"><g><path d="M 12.9375 0.1875 C 10.789062 0.1875 8.851562 -0.285156 7.125 -1.234375 C 5.40625 -2.179688 4.054688 -3.492188 3.078125 -5.171875 C 2.097656 -6.859375 1.609375 -8.742188 1.609375 -10.828125 C 1.609375 -12.910156 2.097656 -14.789062 3.078125 -16.46875 C 4.054688 -18.15625 5.410156 -19.472656 7.140625 -20.421875 C 8.878906 -21.378906 10.820312 -21.859375 12.96875 -21.859375 C 14.582031 -21.859375 16.066406 -21.585938 17.421875 -21.046875 C 18.785156 -20.515625 19.941406 -19.734375 20.890625 -18.703125 L 19.4375 -17.234375 C 17.75 -18.953125 15.613281 -19.8125 13.03125 -19.8125 C 11.320312 -19.8125 9.765625 -19.414062 8.359375 -18.625 C 6.953125 -17.84375 5.851562 -16.769531 5.0625 -15.40625 C 4.269531 -14.050781 3.875 -12.523438 3.875 -10.828125 C 3.875 -9.140625 4.269531 -7.613281 5.0625 -6.25 C 5.851562 -4.882812 6.953125 -3.8125 8.359375 -3.03125 C 9.765625 -2.25 11.320312 -1.859375 13.03125 -1.859375 C 15.632812 -1.859375 17.769531 -2.722656 19.4375 -4.453125 L 20.890625 -3 C 19.941406 -1.96875 18.78125 -1.175781 17.40625 -0.625 C 16.039062 -0.0820312 14.550781 0.1875 12.9375 0.1875 Z M 12.9375 0.1875 "/></g></g></g><g fill="#000000" fill-opacity="1"><g transform="translate(72.896263, 28.496356)"><g><path d="M 13 0.1875 C 10.851562 0.1875 8.90625 -0.289062 7.15625 -1.25 C 5.414062 -2.207031 4.054688 -3.519531 3.078125 -5.1875 C 2.097656 -6.863281 1.609375 -8.742188 1.609375 -10.828125 C 1.609375 -12.910156 2.097656 -14.785156 3.078125 -16.453125 C 4.054688 -18.128906 5.414062 -19.445312 7.15625 -20.40625 C 8.90625 -21.375 10.851562 -21.859375 13 -21.859375 C 15.144531 -21.859375 17.078125 -21.378906 18.796875 -20.421875 C 20.523438 -19.472656 21.882812 -18.15625 22.875 -16.46875 C 23.863281 -14.789062 24.359375 -12.910156 24.359375 -10.828125 C 24.359375 -8.742188 23.863281 -6.859375 22.875 -5.171875 C 21.882812 -3.492188 20.523438 -2.179688 18.796875 -1.234375 C 17.078125 -0.285156 15.144531 0.1875 13 0.1875 Z M 13 -1.859375 C 14.707031 -1.859375 16.253906 -2.242188 17.640625 -3.015625 C 19.023438 -3.785156 20.109375 -4.859375 20.890625 -6.234375 C 21.671875 -7.609375 22.0625 -9.140625 22.0625 -10.828125 C 22.0625 -12.523438 21.671875 -14.054688 20.890625 -15.421875 C 20.109375 -16.796875 19.023438 -17.867188 17.640625 -18.640625 C 16.253906 -19.421875 14.707031 -19.8125 13 -19.8125 C 11.289062 -19.8125 9.738281 -19.421875 8.34375 -18.640625 C 6.945312 -17.867188 5.851562 -16.796875 5.0625 -15.421875 C 4.269531 -14.054688 3.875 -12.523438 3.875 -10.828125 C 3.875 -9.140625 4.269531 -7.609375 5.0625 -6.234375 C 5.851562 -4.859375 6.945312 -3.785156 8.34375 -3.015625 C 9.738281 -2.242188 11.289062 -1.859375 13 -1.859375 Z M 13 -1.859375 "/></g></g></g><g fill="#000000" fill-opacity="1"><g transform="translate(100.098082, 28.496356)"><g><path d="M 3.53125 -21.671875 L 5.8125 -21.671875 L 5.8125 -1.984375 L 17.953125 -1.984375 L 17.953125 0 L 3.53125 0 Z M 3.53125 -21.671875 "/></g></g></g><g fill="#000000" fill-opacity="1"><g transform="translate(119.563325, 28.496356)"><g><path d="M 3.53125 -21.671875 L 5.8125 -21.671875 L 5.8125 -1.984375 L 17.953125 -1.984375 L 17.953125 0 L 3.53125 0 Z M 3.53125 -21.671875 "/></g></g></g><g fill="#000000" fill-opacity="1"><g transform="translate(139.028567, 28.496356)"><g><path d="M 18.84375 -1.984375 L 18.84375 0 L 3.53125 0 L 3.53125 -21.671875 L 18.390625 -21.671875 L 18.390625 -19.6875 L 5.8125 -19.6875 L 5.8125 -11.984375 L 17.03125 -11.984375 L 17.03125 -10.03125 L 5.8125 -10.03125 L 5.8125 -1.984375 Z M 18.84375 -1.984375 "/></g></g></g><g fill="#000000" fill-opacity="1"><g transform="translate(160.969509, 28.496356)"><g><path d="M 18.78125 -10.828125 L 20.984375 -10.828125 L 20.984375 -2.5625 C 19.972656 -1.675781 18.773438 -0.992188 17.390625 -0.515625 C 16.015625 -0.046875 14.5625 0.1875 13.03125 0.1875 C 10.863281 0.1875 8.910156 -0.285156 7.171875 -1.234375 C 5.441406 -2.179688 4.082031 -3.492188 3.09375 -5.171875 C 2.101562 -6.859375 1.609375 -8.742188 1.609375 -10.828125 C 1.609375 -12.910156 2.101562 -14.789062 3.09375 -16.46875 C 4.082031 -18.15625 5.441406 -19.472656 7.171875 -20.421875 C 8.910156 -21.378906 10.875 -21.859375 13.0625 -21.859375 C 14.707031 -21.859375 16.222656 -21.59375 17.609375 -21.0625 C 18.992188 -20.539062 20.160156 -19.765625 21.109375 -18.734375 L 19.6875 -17.265625 C 17.96875 -18.960938 15.789062 -19.8125 13.15625 -19.8125 C 11.40625 -19.8125 9.820312 -19.421875 8.40625 -18.640625 C 6.988281 -17.867188 5.878906 -16.796875 5.078125 -15.421875 C 4.273438 -14.054688 3.875 -12.523438 3.875 -10.828125 C 3.875 -9.140625 4.273438 -7.613281 5.078125 -6.25 C 5.878906 -4.882812 6.984375 -3.8125 8.390625 -3.03125 C 9.796875 -2.25 11.375 -1.859375 13.125 -1.859375 C 15.351562 -1.859375 17.238281 -2.414062 18.78125 -3.53125 Z M 18.78125 -10.828125 "/></g></g></g><g fill="#000000" fill-opacity="1"><g transform="translate(186.128874, 28.496356)"><g><path d="M 18.84375 -1.984375 L 18.84375 0 L 3.53125 0 L 3.53125 -21.671875 L 18.390625 -21.671875 L 18.390625 -19.6875 L 5.8125 -19.6875 L 5.8125 -11.984375 L 17.03125 -11.984375 L 17.03125 -10.03125 L 5.8125 -10.03125 L 5.8125 -1.984375 Z M 18.84375 -1.984375 "/></g></g></g><g fill="#0f4d92" fill-opacity="1"><g transform="translate(208.078142, 28.496356)"><g><path d="M 17.171875 -11.171875 C 18.597656 -10.859375 19.695312 -10.242188 20.46875 -9.328125 C 21.25 -8.410156 21.640625 -7.226562 21.640625 -5.78125 C 21.640625 -3.925781 20.953125 -2.5 19.578125 -1.5 C 18.203125 -0.5 16.175781 0 13.5 0 L 3.53125 0 L 3.53125 -21.671875 L 12.875 -21.671875 C 15.289062 -21.671875 17.160156 -21.179688 18.484375 -20.203125 C 19.816406 -19.234375 20.484375 -17.863281 20.484375 -16.09375 C 20.484375 -14.894531 20.191406 -13.878906 19.609375 -13.046875 C 19.023438 -12.210938 18.210938 -11.585938 17.171875 -11.171875 Z M 5.8125 -19.78125 L 5.8125 -11.921875 L 12.71875 -11.921875 C 14.476562 -11.921875 15.832031 -12.253906 16.78125 -12.921875 C 17.726562 -13.585938 18.203125 -14.5625 18.203125 -15.84375 C 18.203125 -17.125 17.726562 -18.097656 16.78125 -18.765625 C 15.832031 -19.441406 14.476562 -19.78125 12.71875 -19.78125 Z M 13.46875 -1.890625 C 15.40625 -1.890625 16.867188 -2.21875 17.859375 -2.875 C 18.847656 -3.539062 19.34375 -4.570312 19.34375 -5.96875 C 19.34375 -8.675781 17.382812 -10.03125 13.46875 -10.03125 L 5.8125 -10.03125 L 5.8125 -1.890625 Z M 13.46875 -1.890625 "/></g></g></g><g fill="#0f4d92" fill-opacity="1"><g transform="translate(232.649527, 28.496356)"><g><path d="M 17.109375 -5.78125 L 5.046875 -5.78125 L 2.4375 0 L 0.0625 0 L 9.96875 -21.671875 L 12.21875 -21.671875 L 22.125 0 L 19.71875 0 Z M 16.28125 -7.640625 L 11.078125 -19.28125 L 5.875 -7.640625 Z M 16.28125 -7.640625 "/></g></g></g><g fill="#0f4d92" fill-opacity="1"><g transform="translate(256.0759, 28.496356)"><g><path d="M 9.5 0.1875 C 7.894531 0.1875 6.351562 -0.0664062 4.875 -0.578125 C 3.394531 -1.097656 2.253906 -1.78125 1.453125 -2.625 L 2.359375 -4.390625 C 3.140625 -3.609375 4.175781 -2.972656 5.46875 -2.484375 C 6.769531 -2.003906 8.113281 -1.765625 9.5 -1.765625 C 11.4375 -1.765625 12.890625 -2.117188 13.859375 -2.828125 C 14.835938 -3.546875 15.328125 -4.472656 15.328125 -5.609375 C 15.328125 -6.472656 15.0625 -7.160156 14.53125 -7.671875 C 14.007812 -8.191406 13.363281 -8.585938 12.59375 -8.859375 C 11.832031 -9.140625 10.769531 -9.445312 9.40625 -9.78125 C 7.78125 -10.195312 6.484375 -10.59375 5.515625 -10.96875 C 4.546875 -11.351562 3.710938 -11.9375 3.015625 -12.71875 C 2.328125 -13.5 1.984375 -14.5625 1.984375 -15.90625 C 1.984375 -17 2.269531 -17.992188 2.84375 -18.890625 C 3.425781 -19.796875 4.316406 -20.515625 5.515625 -21.046875 C 6.710938 -21.585938 8.195312 -21.859375 9.96875 -21.859375 C 11.207031 -21.859375 12.421875 -21.6875 13.609375 -21.34375 C 14.796875 -21 15.820312 -20.53125 16.6875 -19.9375 L 15.90625 -18.109375 C 15 -18.703125 14.03125 -19.148438 13 -19.453125 C 11.96875 -19.753906 10.957031 -19.90625 9.96875 -19.90625 C 8.070312 -19.90625 6.640625 -19.535156 5.671875 -18.796875 C 4.710938 -18.066406 4.234375 -17.125 4.234375 -15.96875 C 4.234375 -15.101562 4.492188 -14.40625 5.015625 -13.875 C 5.546875 -13.351562 6.207031 -12.953125 7 -12.671875 C 7.800781 -12.390625 8.875 -12.085938 10.21875 -11.765625 C 11.800781 -11.367188 13.082031 -10.976562 14.0625 -10.59375 C 15.039062 -10.21875 15.867188 -9.640625 16.546875 -8.859375 C 17.234375 -8.085938 17.578125 -7.039062 17.578125 -5.71875 C 17.578125 -4.625 17.28125 -3.628906 16.6875 -2.734375 C 16.101562 -1.835938 15.203125 -1.125 13.984375 -0.59375 C 12.773438 -0.0703125 11.28125 0.1875 9.5 0.1875 Z M 9.5 0.1875 "/></g></g></g><g fill="#0f4d92" fill-opacity="1"><g transform="translate(276.345746, 28.496356)"><g><path d="M 18.84375 -1.984375 L 18.84375 0 L 3.53125 0 L 3.53125 -21.671875 L 18.390625 -21.671875 L 18.390625 -19.6875 L 5.8125 -19.6875 L 5.8125 -11.984375 L 17.03125 -11.984375 L 17.03125 -10.03125 L 5.8125 -10.03125 L 5.8125 -1.984375 Z M 18.84375 -1.984375 "/></g></g></g></svg>