<svg id="Layer_1" viewBox="0 0 512 512" xmlns="http://www.w3.org/2000/svg" data-name="Layer 1"><path d="m264.008 24.126v96.406c68.457 3.997 123.477 58.989 127.474 127.474h96.378c-4.139-121.578-102.274-219.742-223.852-223.88z" fill="#6ac8eb"/><path d="m357.381 346.085 48.359 48.359c32.003-34.583 52.186-80.22 54.142-130.45h-68.428c-1.814 31.408-14.4 59.981-34.073 82.091z" fill="#a69aa6"/><path d="m264.008 391.439v68.428c50.23-1.956 95.868-22.138 130.45-54.142l-48.387-48.331c-22.11 19.672-50.655 32.23-82.063 34.044z" fill="#f14b4e"/><path d="m256.014 285.821c-20.296 0-38.154 12.671-45.014 31.379 12.954 9.581 28.573 14.769 44.986 14.769s32.031-5.188 45.014-14.769c-6.832-18.708-24.661-31.379-44.986-31.379z" fill="#20a5d5"/><path d="m248.021 120.532v-68.4c-106.158 4.11-191.764 89.717-195.874 195.874h68.4c3.997-68.485 58.989-123.477 127.474-127.474z" fill="#ffe177"/><path d="m279.258 246.561c0-12.812-10.432-23.244-23.244-23.244s-23.272 10.431-23.272 23.244 10.432 23.272 23.272 23.272 23.244-10.431 23.244-23.272z" fill="#ffddcf"/><path d="m309.702 202.283c-14.797-14.797-34.243-22.195-53.717-22.195s-38.891 7.398-53.688 22.195c-14.343 14.343-22.252 33.42-22.252 53.717 0 18.425 6.548 35.858 18.51 49.635 6.576-13.436 17.603-24.01 31.011-30.104-7.88-7.172-12.813-17.49-12.813-28.97 0-21.628 17.603-39.231 39.26-39.231s39.232 17.603 39.232 39.231c0 11.48-4.932 21.799-12.784 28.97 13.408 6.066 24.435 16.668 30.983 30.132 25.795-29.821 24.548-75.062-3.742-103.38z" fill="#e8ecf9"/><path d="m120.546 263.994h-96.434c4.167 121.578 102.302 219.742 223.909 223.88v-96.406c-68.485-4.025-123.477-59.017-127.474-127.474z" fill="#45dea6"/><g fill="#030403"><path d="m313.444 305.663c-6.548-13.465-17.575-24.066-30.983-30.132 7.852-7.172 12.784-17.49 12.784-28.97 0-21.628-17.603-39.231-39.232-39.231s-39.26 17.603-39.26 39.231c0 11.48 4.932 21.799 12.813 28.97-13.408 6.094-24.435 16.668-31.011 30.104-11.962-13.776-18.51-31.209-18.51-49.635 0-20.296 7.909-39.373 22.252-53.717 14.797-14.797 34.243-22.195 53.688-22.195s38.92 7.398 53.717 22.195c28.29 28.318 29.537 73.559 3.742 103.38zm-80.702-59.102c0-12.812 10.432-23.244 23.272-23.244s23.244 10.431 23.244 23.244-10.432 23.272-23.244 23.272-23.272-10.431-23.272-23.272zm23.244 85.408c-16.413 0-32.031-5.188-44.986-14.769 6.86-18.708 24.718-31.379 45.014-31.379s38.154 12.671 44.986 31.379c-12.983 9.581-28.573 14.769-45.014 14.769zm65.027-140.996c-35.858-35.83-94.167-35.83-130.025 0-17.348 17.376-26.929 40.479-26.929 65.027s9.581 47.65 26.929 64.999c1.672 1.672 3.401 3.231 5.187 4.762.255.255.51.482.822.708 16.498 13.89 37.162 21.487 58.989 21.487 22.054 0 42.888-7.739 59.471-21.855.085-.057.142-.114.227-.198 1.814-1.559 3.6-3.175 5.329-4.904 35.83-35.83 35.83-94.167 0-130.025z"/><path d="m391.482 248.006c-3.997-68.485-59.017-123.477-127.474-127.474v-96.406c121.578 4.139 219.714 102.302 223.852 223.88zm14.258 146.438-48.359-48.359c19.672-22.11 32.258-50.683 34.073-82.091h68.428c-1.956 50.23-22.139 95.868-54.142 130.45zm-141.732 65.424v-68.428c31.408-1.814 59.953-14.372 82.063-34.044l48.387 48.331c-34.583 32.003-80.22 52.186-130.45 54.142zm-7.994-84.161c-66.019 0-119.707-53.717-119.707-119.707s53.688-119.707 119.707-119.707 119.707 53.688 119.707 119.707-53.717 119.707-119.707 119.707zm-7.993 112.167c-121.606-4.139-219.742-102.302-223.909-223.88h96.435c3.997 68.457 58.989 123.449 127.474 127.474zm0-435.742v68.4c-68.485 3.997-123.477 58.989-127.474 127.474h-68.401c4.11-106.157 89.716-191.764 195.874-195.874zm7.993-44.135c-4.422 0-7.994 3.572-7.994 7.994v20.126c-55.786 1.984-107.915 24.633-147.6 64.29-39.657 39.657-62.305 91.814-64.261 147.6h-20.154c-4.422 0-7.994 3.572-7.994 7.994 0 66.246 25.795 128.523 72.624 175.351s109.134 72.652 175.38 72.652c4.422 0 7.994-3.6 7.994-7.994v-20.154c55.758-1.956 107.915-24.633 147.572-64.29 39.685-39.657 62.305-91.814 64.29-147.572h20.126c4.422 0 7.994-3.6 7.994-7.994 0-66.246-25.795-128.523-72.624-175.38-46.83-46.828-109.107-72.623-175.353-72.623z"/></g></svg>