<svg height="512" viewBox="0 0 64 64" width="512" xmlns="http://www.w3.org/2000/svg"><g id="_17-Education" data-name="17-Education"><path d="m33.26 30.72 8.74-4.03v5.31a.9843.9843 0 0 1 -.2.6 12.51308 12.51308 0 0 1 -9.8 4.4 12.51308 12.51308 0 0 1 -9.8-4.4.9843.9843 0 0 1 -.2-.6v-5.31l8.75 4.04a2.99127 2.99127 0 0 0 1.25.27 2.92864 2.92864 0 0 0 1.26-.28zm-1.26-1.72a1.00507 1.00507 0 0 0 .419-.0918l13-6a1.0003 1.0003 0 0 0 0-1.8164l-13-6a1.00435 1.00435 0 0 0 -.8379 0l-13 6a1.0003 1.0003 0 0 0 0 1.8164l13 6a1.00507 1.00507 0 0 0 .4189.0918zm12 0a1 1 0 0 0 2 0v-4.16l-2 .92zm12-3c0 18.294-22.44971 35.09766-23.40576 35.8042a.99964.99964 0 0 1 -1.18848 0c-.95605-.70654-23.40576-17.5102-23.40576-35.8042a24 24 0 0 1 48 0zm-6 0a18 18 0 1 0 -18 18 18.02047 18.02047 0 0 0 18-18z"/></g></svg>