<svg id="Layer_1" enable-background="new 0 0 512 512" viewBox="0 0 512 512" xmlns="http://www.w3.org/2000/svg"><g><path d="m74.341 119.953-65.168 65.241h65.168z"/><path d="m215.245 110.77h-110.904v89.425c0 8.284-6.716 15-15 15h-89.341v171.035c0 8.284 6.716 15 15 15h200.245c8.284 0 15-6.716 15-15v-260.46c0-8.285-6.716-15-15-15z"/><path d="m481.536 191.455c18.892-20.35 30.464-47.585 30.464-77.476 0-29.294-11.112-56.039-29.337-76.25-38.069 47.051-35.95 102.145-1.127 153.726z"/><path d="m339.034 211.474c17.219 10.457 37.412 16.483 58.987 16.483 22.151 0 42.841-6.358 60.355-17.335-.323-.388-.643-.781-.931-1.209-49.912-73.481-37.772-141.245 2.347-191.179-17.809-11.531-39.021-18.234-61.771-18.234-22.57 0-43.629 6.595-61.352 17.958 51.002 73.668 40.85 142.338 2.365 193.516z"/><path d="m317.052 190.533c35.133-47.515 30.656-102.512-3.381-153.132-18.4 20.249-29.627 47.126-29.627 76.577 0 30.404 11.967 58.064 31.437 78.521.743-.9 1.328-1.623 1.571-1.966z"/><path d="m475.63 304.254-124.199-33.796c-4.508-1.228-9.333-.283-13.047 2.556-3.713 2.838-5.892 7.244-5.892 11.918v94.559c-5.001-1.866-10.407-2.891-16.05-2.891-25.392 0-46.05 20.658-46.05 46.05s20.658 46.05 46.05 46.05 46.05-20.658 46.05-46.05v-118.091l94.199 25.633v92.6c-5-1.865-10.407-2.891-16.05-2.891-25.392 0-46.05 20.658-46.05 46.05s20.659 46.049 46.051 46.049 46.05-20.658 46.05-46.05v-147.222c-.001-6.768-4.532-12.697-11.062-14.474z"/></g><g/><g/><g/><g/><g/><g/><g/><g/><g/><g/><g/><g/><g/><g/><g/></svg>