<svg height="512" viewBox="0 0 64 64" width="512" xmlns="http://www.w3.org/2000/svg"><g id="_15._Women_sign" data-name="15. Women sign"><path d="m51.71 46.7 7.337 7.346a2 2 0 0 1 0 2.827l-2.174 2.174a2 2 0 0 1 -2.827 0l-7.346-7.337-6.336 6.336a2 2 0 0 1 -2.828 0c-4.3-4.3-4.173-3 4.164-11.336l-6.75-6.76c-12.979 9.162-31.17.238-31.93-15.66a20.3 20.3 0 1 1 36.92 10.64c.02.03 6.74 6.75 6.77 6.77l6.336-6.336a2 2 0 0 1 2.828 0l2.172 2.172a2 2 0 0 1 0 2.828zm-15.52-23.39a12.875 12.875 0 1 0 -12.88 12.88 12.876 12.876 0 0 0 12.88-12.88z" fill="#fc7cb4"/></g></svg>