<svg id="Capa_1" enable-background="new 0 0 512 512" viewBox="0 0 512 512" xmlns="http://www.w3.org/2000/svg"><g><g><path d="m132.534 324.095h-15.374c-22.758 0-41.207 18.449-41.207 41.207v28.861c0 15.842-9.702 29.895-24.313 36.017-.082.034-.164.069-.246.104-21.838 9.295-33.358 31.355-25.732 49.273s31.511 24.909 53.349 15.614c16.408-6.983 26.989-21.173 28.003-35.398h.001v-.013c.101-1.429 0-72.963 0-72.963 0-6.095 4.941-11.037 11.037-11.037h14.482c14.267 0 25.833-11.566 25.833-25.833-.001-14.266-11.566-25.832-25.833-25.832z" fill="#90d6f2"/></g><g><path d="m304.967 139.878c-66.034 18.835-127.139 7.546-136.484-25.214-5.068-17.768 6.135-38.198 27.986-56.181 23.922-19.688 10.345-58.395-20.637-58.482-.73-.002-1.461 0-2.193.007-94.946.899-172.479 78.389-173.427 173.335-.963 96.462 76.07 175.159 171.897 176.89 95.504 1.724 175.536-74.488 178.281-169.968.105-3.646.098-7.267-.018-10.86-.694-21.521-21.58-36.641-42.206-30.462-1.061.317-2.127.629-3.199.935z" fill="#db9e82"/></g><g><path d="m154.739 173.343c.224-22.462 4.74-43.944 12.754-63.669-1.914-16.533 9.145-34.87 28.976-51.192 23.922-19.689 10.345-58.395-20.637-58.482-.73-.002-1.461 0-2.193.007-94.946.9-172.479 78.391-173.427 173.336-.963 96.462 76.07 175.159 171.897 176.89 28.722.519 56.04-6.02 80.282-18.004-58.361-28.835-98.347-89.224-97.652-158.886z" fill="#c8866a"/></g><g><circle cx="84.221" cy="115.085" fill="#ffdf61" r="30.905"/></g><g><path d="m114.734 220.07c0-17.474-14.501-31.56-32.126-30.882-15.926.613-28.931 13.524-29.652 29.445-.552 12.195 5.968 22.918 15.805 28.422 3.162 1.769 5.55 4.637 6.98 7.966 2.591 6.03 8.599 10.244 15.589 10.2 9.33-.059 16.737-7.931 16.737-17.261v-3.888c0-2.859.789-5.658 2.263-8.108 2.794-4.645 4.404-10.08 4.404-15.894z" fill="#f2f6fc"/></g><g><circle cx="184.691" cy="269.127" fill="#515181" r="30.905"/></g><g><g><path d="m388.175 205.82c-26.164 0-51.099-1.751-73.813-4.919-26.325-3.672-49.809 16.784-49.809 43.363v51.685c0 61.546 35.288 117.641 90.767 144.287 20.768 9.975 44.942 9.975 65.71 0 55.479-26.646 90.767-82.741 90.767-144.287v-51.685c0-26.58-23.484-47.035-49.809-43.363-22.714 3.168-47.649 4.919-73.813 4.919z" fill="#ffee6e"/></g></g><g><path d="m346.968 295.949v-47.564c0-20.977 14.632-38.129 33.739-42.627-23.438-.3-45.805-1.992-66.345-4.857-26.325-3.672-49.809 16.783-49.809 43.363v51.685c0 61.546 35.288 117.641 90.767 144.287 20.768 9.975 44.942 9.975 65.71 0 2.842-1.365 5.618-2.827 8.352-4.343-50.636-28.085-82.414-81.551-82.414-139.944z" fill="#ffdf61"/></g><g><path d="m269.36 295.781c-20.448 11.459-40.665 21.178-59.885 28.966-24.634 9.982-34.744 39.439-21.454 62.458l25.843 44.761c30.773 53.3 89.381 84.236 150.75 79.573 22.973-1.746 43.908-13.833 56.907-32.855 1.779-2.604 3.452-5.257 5.061-7.937z" fill="#ff7d81"/></g><g><g><path d="m269.36 295.781c-14.298 13.449-18.394 35.618-7.905 53.785l23.782 41.192c29.196 50.57 83.451 80.984 141.345 79.987 29.81-49.639 30.598-111.832 1.401-162.402l-25.843-44.761c-13.29-23.019-43.856-28.992-64.817-12.649-18.086 14.101-38.806 28.085-61.464 41.167-2.17 1.253-4.337 2.469-6.503 3.682.002 0 .003-.001.004-.001z" fill="#ff9696"/></g></g><g><g><path d="m249.593 409.214c-2.592 0-5.112-1.345-6.502-3.751-2.896-5.015-3.665-10.857-2.166-16.451 1.498-5.594 5.086-10.27 10.102-13.165 5.015-2.896 10.858-3.666 16.451-2.166 5.594 1.499 10.27 5.086 13.164 10.102 2.071 3.587.842 8.174-2.746 10.245-3.585 2.071-8.174.842-10.244-2.746-.893-1.545-2.332-2.65-4.056-3.112-1.726-.463-3.524-.226-5.069.667-1.546.893-2.651 2.333-3.113 4.057s-.225 3.524.668 5.069c2.071 3.587.842 8.174-2.745 10.245-1.182.682-2.472 1.006-3.744 1.006z" fill="#495560"/></g><g><path d="m359.368 345.835c-2.592 0-5.113-1.345-6.502-3.752-5.977-10.354-2.417-23.639 7.936-29.615 10.353-5.978 23.64-2.418 29.616 7.936 2.071 3.587.842 8.174-2.745 10.245-3.585 2.072-8.175.842-10.245-2.745-1.842-3.19-5.935-4.287-9.126-2.445-3.189 1.842-4.287 5.936-2.445 9.126 2.071 3.587.842 8.174-2.746 10.245-1.181.681-2.47 1.005-3.743 1.005z" fill="#495560"/></g><g><path d="m318.502 393.39c-3.002 0-6.016-.492-8.92-1.488-3.918-1.343-6.006-5.609-4.662-9.527 1.345-3.919 5.613-6.003 9.527-4.662 3.412 1.169 7.156.811 10.271-.988 3.113-1.797 5.297-4.859 5.99-8.4.795-4.064 4.731-6.716 8.801-5.92 4.065.795 6.716 4.736 5.92 8.801-1.526 7.797-6.341 14.544-13.211 18.51-4.215 2.434-8.95 3.674-13.716 3.674z" fill="#495560"/></g></g><g><path d="m369.356 0h-61.811c-22.758 0-41.207 18.449-41.207 41.207v28.818c0 15.851-9.695 29.925-24.312 36.06-.082.034-.164.069-.247.104-21.838 9.295-33.358 31.354-25.732 49.273 7.626 17.918 31.511 24.909 53.349 15.614 16.408-6.983 26.989-21.173 28.003-35.398h.001v-.013c.101-1.429 0-72.963 0-72.963 0-6.095 4.941-11.037 11.037-11.037h19.712z" fill="#81c661"/></g><g><g><path d="m410.289 41.207c0-22.712-18.375-41.129-41.07-41.204-22.695.074-41.07 18.491-41.07 41.204v10.459h40.041c6.095 0 11.037 4.941 11.037 11.037v7.322c0 15.851-9.695 29.925-24.311 36.06-.082.034-.164.069-.247.104-21.838 9.294-33.358 31.354-25.732 49.273 7.626 17.918 31.511 24.909 53.349 15.614 16.407-6.983 26.989-21.173 28.003-35.398h.001v-.013c.101-1.428-.001-94.458-.001-94.458z" fill="#8dd470"/></g></g></g><g/><g/><g/><g/><g/><g/><g/><g/><g/><g/><g/><g/><g/><g/><g/></svg>