<svg id="Capa_1" enable-background="new 0 0 512 512" height="512" viewBox="0 0 512 512" width="512" xmlns="http://www.w3.org/2000/svg"><g><path d="m496.91 445.07h-6.97v-42.538c0-9.669-9.042-16.916-18.59-14.669-24.12 5.726-40.17 8.574-60.72 8.304-35.216-.46-50.073-7.462-92.07-10.712-26.84-2.079-48.67 10.332-62.56 27.959-13.89-17.627-35.72-30.038-62.56-27.959-41.951 3.247-56.885 10.253-92.07 10.712-20.55.27-36.6-2.578-60.72-8.304-9.537-2.244-18.59 4.986-18.59 14.669v42.538h-6.97c-8.33 0-15.09 6.755-15.09 15.079 0 8.334 6.76 15.079 15.09 15.079h160.13c6.48 21.264 26.29 36.772 49.65 36.772h62.26c23.36 0 43.17-15.508 49.65-36.772h160.13c8.33 0 15.09-6.745 15.09-15.079 0-8.324-6.76-15.079-15.09-15.079z"/><g><path d="m177.01 49.535c-40.92 40.851-44.468 104.504-10.38 149.409 13.73 18.076 23.38 38.002 28.8 59.426h47.12v-88.804c0-8.287 6.738-14.989 15-14.989 8.28 0 15 6.715 15 14.989v88.804h47.18c5.45-21.384 15.16-41.429 28.98-59.755 33.471-44.356 30.716-108.505-11.07-149.688-44.469-43.818-116.021-43.947-160.63.608z"/><path d="m99.448 130.275c8.284 0 15-6.711 15-14.989s-6.716-14.989-15-14.989h-50.01c-8.284 0-15 6.711-15 14.989s6.716 14.989 15 14.989z"/><path d="m459.817 202.668-43.089-25.366c-7.138-4.201-16.333-1.827-20.538 5.306-4.205 7.132-1.828 16.32 5.31 20.522l43.089 25.366c7.143 4.204 16.337 1.822 20.538-5.306 4.204-7.132 1.827-16.32-5.31-20.522z"/><path d="m98.373 177.302-43.089 25.366c-7.138 4.202-9.515 13.39-5.31 20.522 4.206 7.134 13.401 9.507 20.538 5.306l43.089-25.366c7.138-4.202 9.515-13.39 5.31-20.522-4.206-7.133-13.401-9.507-20.538-5.306z"/><path d="m416.728 53.271 43.089-25.366c7.138-4.202 9.515-13.39 5.31-20.522-4.205-7.133-13.402-9.507-20.538-5.306l-43.089 25.366c-7.138 4.202-9.515 13.39-5.31 20.522 4.206 7.135 13.4 9.508 20.538 5.306z"/><path d="m113.602 27.443-43.089-25.366c-7.138-4.201-16.331-1.827-20.538 5.306-4.205 7.132-1.828 16.32 5.31 20.522l43.089 25.366c7.142 4.204 16.334 1.823 20.538-5.306 4.204-7.132 1.828-16.32-5.31-20.522z"/><path d="m465.662 100.298h-50.01c-8.284 0-15 6.711-15 14.989s6.716 14.989 15 14.989h50.01c8.284 0 15-6.711 15-14.989s-6.715-14.989-15-14.989z"/><path d="m198.44 288.347v15.968c0 23.213 19.52 42.088 43.54 42.088h30.9c23.84 0 43.38-18.746 43.56-41.789l.11-16.268h-118.11z"/></g></g></svg>