<svg version="1.1" id="Capa_1" xmlns="http://www.w3.org/2000/svg" xmlns:xlink="http://www.w3.org/1999/xlink" x="0px" y="0px" viewBox="0 0 512 512" style="enable-background:new 0 0 512 512;" xml:space="preserve">
<g>
	<path style="fill:#90D6F2;" d="M136.151,322.1h-14.924c-22.091,0-40,17.909-40,40v28.015c0,15.378-9.417,29.02-23.6,34.962&#10;&#9;&#9;c-0.079,0.033-0.159,0.067-0.238,0.101C36.19,434.2,25.007,455.614,32.41,473.007c7.403,17.393,30.588,24.179,51.786,15.157&#10;&#9;&#9;c15.927-6.779,26.198-20.553,27.183-34.361h0.001v-0.012c0.098-1.387,0-70.825,0-70.825c0-5.917,4.797-10.713,10.713-10.713h14.058&#10;&#9;&#9;c13.849,0,25.076-11.227,25.076-25.076v0C161.227,333.327,150,322.1,136.151,322.1z"/>
	<path style="fill:#DB9E82;" d="M303.532,143.28c-64.099,18.283-123.415,7.325-132.485-24.476&#10;&#9;&#9;c-4.919-17.247,5.956-37.079,27.166-54.535c23.221-19.112,10.042-56.685-20.033-56.768c-0.709-0.002-1.418,0-2.129,0.007&#10;&#9;&#9;C83.888,8.381,8.626,83.601,7.706,175.764c-0.934,93.636,73.842,170.028,166.861,171.707&#10;&#9;&#9;c92.706,1.674,170.394-72.306,173.058-164.988c0.102-3.539,0.095-7.054-0.018-10.542c-0.674-20.89-20.948-35.567-40.97-29.569&#10;&#9;&#9;C305.608,142.68,304.573,142.983,303.532,143.28z"/>
	<path style="fill:#C8866A;" d="M157.706,175.764c0.218-21.804,4.601-42.656,12.38-61.804c-1.858-16.048,8.877-33.849,28.127-49.692&#10;&#9;&#9;c23.221-19.112,10.042-56.685-20.033-56.768c-0.709-0.002-1.418,0-2.129,0.007C83.888,8.381,8.626,83.601,7.706,175.764&#10;&#9;&#9;c-0.934,93.636,73.842,170.028,166.861,171.707c27.88,0.503,54.398-5.844,77.93-17.476&#10;&#9;&#9;C195.846,302.005,157.031,243.385,157.706,175.764z"/>
	<circle style="fill:#FFDF61;" cx="89.254" cy="119.213" r="30"/>
	<path style="fill:#F2F6FC;" d="M118.873,221.123c0-16.962-14.077-30.636-31.185-29.977c-15.459,0.595-28.083,13.127-28.784,28.582&#10;&#9;&#9;c-0.536,11.838,5.793,22.247,15.342,27.589c3.07,1.717,5.388,4.501,6.776,7.732c2.515,5.854,8.347,9.944,15.133,9.901&#10;&#9;&#9;c9.057-0.057,16.247-7.699,16.247-16.756v-3.775c0-2.775,0.766-5.492,2.197-7.87C117.31,232.042,118.873,226.766,118.873,221.123z"/>
	<circle style="fill:#515181;" cx="186.78" cy="268.742" r="30"/>
	<g>
		<path style="fill:#FFEE6E;" d="M384.303,207.29c-25.397,0-49.602-1.7-71.651-4.775c-25.553-3.565-48.349,16.292-48.349,42.093&#10;&#9;&#9;&#9;v50.171c0,59.743,34.254,114.194,88.107,140.06l0,0c20.159,9.682,43.626,9.682,63.785,0l0,0&#10;&#9;&#9;&#9;c53.853-25.865,88.107-80.317,88.107-140.06v-50.171c0-25.801-22.796-45.657-48.349-42.093&#10;&#9;&#9;&#9;C433.905,205.591,409.7,207.29,384.303,207.29z"/>
	</g>
	<path style="fill:#FFDF61;" d="M344.303,294.779v-46.171c0-20.363,14.203-37.012,32.75-41.378&#10;&#9;&#9;c-22.752-0.292-44.463-1.933-64.401-4.715c-25.553-3.565-48.349,16.292-48.349,42.093v50.171&#10;&#9;&#9;c0,59.743,34.254,114.194,88.107,140.06h0c20.159,9.682,43.626,9.682,63.785,0h0c2.759-1.325,5.453-2.744,8.107-4.216&#10;&#9;&#9;C375.15,403.361,344.303,351.46,344.303,294.779z"/>
	<path style="fill:#FF7D81;" d="M268.969,294.615c-19.849,11.123-39.473,20.557-58.13,28.117&#10;&#9;&#9;c-23.912,9.69-33.726,38.284-20.826,60.628l25.085,43.449c29.871,51.739,86.762,81.768,146.333,77.241l0,0&#10;&#9;&#9;c22.3-1.694,42.622-13.428,55.239-31.892l0,0c1.727-2.527,3.351-5.103,4.913-7.705L268.969,294.615z"/>
	<g>
		<path style="fill:#FF9696;" d="M268.969,294.615c-13.88,13.055-17.855,34.575-7.674,52.21l23.085,39.985&#10;&#9;&#9;&#9;c28.341,49.088,81.006,78.611,137.204,77.644c28.937-48.185,29.701-108.556,1.36-157.644l-25.085-43.449&#10;&#9;&#9;&#9;c-12.9-22.344-42.571-28.143-62.918-12.279c-17.557,13.688-37.669,27.262-59.664,39.961c-2.107,1.216-4.21,2.396-6.312,3.574&#10;&#9;&#9;&#9;C268.966,294.617,268.968,294.616,268.969,294.615z"/>
	</g>
	<g>
		<path style="fill:none;stroke:#000000;stroke-width:15;stroke-linecap:round;stroke-linejoin:round;stroke-miterlimit:10;" d="&#10;&#9;&#9;&#9;M273.615,383.679c-3.801-6.584-12.22-8.839-18.803-5.038c-6.584,3.801-8.839,12.22-5.038,18.803"/>
		<path style="fill:none;stroke:#000000;stroke-width:15;stroke-linecap:round;stroke-linejoin:round;stroke-miterlimit:10;" d="&#10;&#9;&#9;&#9;M356.333,335.921c-3.801-6.584-1.545-15.002,5.038-18.803c6.584-3.801,15.002-1.545,18.803,5.038"/>
		<path style="fill:none;stroke:#000000;stroke-width:15;stroke-linecap:round;stroke-linejoin:round;stroke-miterlimit:10;" d="&#10;&#9;&#9;&#9;M310.374,381.034c5.112,1.753,10.924,1.374,15.971-1.54c5.047-2.914,8.281-7.758,9.319-13.061"/>
	</g>
	<path style="fill:#81C661;" d="M366.035,7.5h-60c-22.091,0-40,17.909-40,40v27.973c0,15.387-9.411,29.049-23.599,35.004&#10;&#9;&#9;c-0.08,0.033-0.16,0.067-0.24,0.101c-21.198,9.022-32.381,30.436-24.978,47.829c7.403,17.393,30.588,24.179,51.786,15.157&#10;&#9;&#9;c15.927-6.779,26.198-20.553,27.183-34.361h0.001v-0.012c0.098-1.387,0-70.825,0-70.825c0-5.917,4.797-10.713,10.713-10.713h19.134&#10;&#9;&#9;L366.035,7.5z"/>
	<g>
		<path style="fill:#8DD470;" d="M405.769,47.5c0-22.047-17.837-39.924-39.867-39.997c-22.03,0.072-39.867,17.95-39.867,39.997&#10;&#9;&#9;&#9;v10.152h38.868c5.917,0,10.713,4.797,10.713,10.713v7.108c0,15.387-9.411,29.049-23.599,35.004c-0.08,0.033-0.16,0.067-0.24,0.101&#10;&#9;&#9;&#9;c-21.198,9.022-32.381,30.436-24.978,47.829c7.403,17.393,30.588,24.179,51.786,15.157c15.927-6.779,26.198-20.553,27.183-34.361&#10;&#9;&#9;&#9;h0.001v-0.012C405.867,137.804,405.769,47.5,405.769,47.5z"/>
	</g>
	<g>
		<path style="fill:none;stroke:#000000;stroke-width:15;stroke-linecap:round;stroke-linejoin:round;stroke-miterlimit:10;" d="&#10;&#9;&#9;&#9;M98.862,328.931c-10.64,7.188-17.636,19.362-17.636,33.169v28.015c0,15.378-9.417,29.02-23.6,34.962&#10;&#9;&#9;&#9;c-0.079,0.033-0.159,0.067-0.238,0.101C36.19,434.2,25.007,455.614,32.41,473.007c7.403,17.393,30.588,24.179,51.786,15.157&#10;&#9;&#9;&#9;c15.927-6.779,26.198-20.553,27.183-34.361h0.001v-0.012c0.098-1.387,0-70.825,0-70.825c0-5.917,4.797-10.713,10.713-10.713&#10;&#9;&#9;&#9;h14.058c13.849,0,25.076-11.227,25.076-25.076v0"/>
		<path style="fill:none;stroke:#000000;stroke-width:15;stroke-linecap:round;stroke-linejoin:round;stroke-miterlimit:10;" d="&#10;&#9;&#9;&#9;M324.113,142.145c-5.495-1.511-11.496-1.564-17.475,0.227c-1.03,0.308-2.065,0.611-3.105,0.908&#10;&#9;&#9;&#9;c-2.004,0.572-4.003,1.114-5.996,1.629"/>
		<path style="fill:none;stroke:#000000;stroke-width:15;stroke-linecap:round;stroke-linejoin:round;stroke-miterlimit:10;" d="&#10;&#9;&#9;&#9;M345.467,205.012c1.208-7.361,1.938-14.881,2.158-22.529c0.056-1.931,0.079-3.855,0.07-5.771"/>
		<path style="fill:none;stroke:#000000;stroke-width:15;stroke-linecap:round;stroke-linejoin:round;stroke-miterlimit:10;" d="&#10;&#9;&#9;&#9;M34.161,86.681C17.704,112.54,8.032,143.087,7.706,175.764c-0.934,93.636,73.842,170.028,166.861,171.707&#10;&#9;&#9;&#9;c3.645,0.066,7.267,0.015,10.861-0.15"/>
		<path style="fill:none;stroke:#000000;stroke-width:15;stroke-linecap:round;stroke-linejoin:round;stroke-miterlimit:10;" d="&#10;&#9;&#9;&#9;M213.605,149.218c-22.37-4.752-38.217-15.196-42.557-30.414c-4.919-17.247,5.956-37.079,27.166-54.535&#10;&#9;&#9;&#9;c23.221-19.112,10.042-56.685-20.033-56.768c-0.709-0.002-1.418,0-2.129,0.007c-46.082,0.436-87.939,19.46-118.39,49.894"/>
		
			<circle style="fill:none;stroke:#000000;stroke-width:15;stroke-linecap:round;stroke-linejoin:round;stroke-miterlimit:10;" cx="89.254" cy="119.213" r="30"/>
		<path style="fill:none;stroke:#000000;stroke-width:15;stroke-linecap:round;stroke-linejoin:round;stroke-miterlimit:10;" d="&#10;&#9;&#9;&#9;M118.873,221.123c0-16.962-14.077-30.636-31.185-29.977c-15.459,0.595-28.083,13.127-28.784,28.582&#10;&#9;&#9;&#9;c-0.536,11.838,5.793,22.247,15.342,27.589c3.07,1.717,5.388,4.501,6.776,7.732c2.515,5.854,8.347,9.944,15.133,9.901&#10;&#9;&#9;&#9;c9.057-0.057,16.247-7.699,16.247-16.756v-3.775c0-2.775,0.766-5.492,2.197-7.87C117.31,232.042,118.873,226.766,118.873,221.123z&#10;&#9;&#9;&#9;"/>
		
			<circle style="fill:none;stroke:#000000;stroke-width:15;stroke-linecap:round;stroke-linejoin:round;stroke-miterlimit:10;" cx="186.78" cy="268.742" r="30"/>
		<g>
			<g>
				<g>
					<path style="fill:none;stroke:#000000;stroke-width:15;stroke-linecap:round;stroke-linejoin:round;stroke-miterlimit:10;" d="&#10;&#9;&#9;&#9;&#9;&#9;&#9;M440.878,420.031c39.417-28.93,63.424-75.237,63.424-125.253v-50.171c0-25.801-22.796-45.657-48.349-42.093&#10;&#9;&#9;&#9;&#9;&#9;&#9;c-22.048,3.076-46.253,4.775-71.651,4.775c-25.397,0-49.602-1.7-71.651-4.775c-25.553-3.565-48.349,16.292-48.349,42.093&#10;&#9;&#9;&#9;&#9;&#9;&#9;v50.171"/>
				</g>
			</g>
		</g>
		<path style="fill:none;stroke:#000000;stroke-width:15;stroke-linecap:round;stroke-linejoin:round;stroke-miterlimit:10;" d="&#10;&#9;&#9;&#9;M421.134,303.674l-23.275-40.314c-12.9-22.344-42.571-28.143-62.918-12.279c-17.556,13.688-37.669,27.262-59.664,39.961&#10;&#9;&#9;&#9;c-21.995,12.699-43.807,23.329-64.439,31.69c-23.912,9.69-33.726,38.284-20.826,60.628l25.085,43.449&#10;&#9;&#9;&#9;c29.871,51.739,86.762,81.768,146.333,77.241l0,0c22.3-1.695,42.622-13.428,55.239-31.892l0,0&#10;&#9;&#9;&#9;c27.694-40.528,34.28-91.152,19.18-136.62"/>
		<path style="fill:none;stroke:#000000;stroke-width:15;stroke-linecap:round;stroke-linejoin:round;stroke-miterlimit:10;" d="&#10;&#9;&#9;&#9;M405.769,47.5c0-22.091-17.909-40-40-40h-59.734c-22.091,0-40,17.909-40,40v27.973c0,15.387-9.411,29.049-23.599,35.004&#10;&#9;&#9;&#9;c-0.08,0.034-0.16,0.067-0.24,0.101c-21.198,9.022-32.381,30.436-24.978,47.829s30.588,24.179,51.786,15.157&#10;&#9;&#9;&#9;c15.927-6.779,26.198-20.553,27.183-34.361h0.001v-0.012c0.098-1.387,0-70.825,0-70.825c0-5.917,4.797-10.713,10.713-10.713&#10;&#9;&#9;&#9;h58.002c5.917,0,10.713,4.797,10.713,10.713v7.108c0,15.387-9.411,29.049-23.599,35.004c-0.08,0.034-0.16,0.067-0.24,0.101&#10;&#9;&#9;&#9;c-21.198,9.022-32.381,30.436-24.978,47.829c7.403,17.393,30.588,24.179,51.786,15.157c15.927-6.779,26.198-20.553,27.183-34.361&#10;&#9;&#9;&#9;h0.001v-0.012C405.867,137.804,405.769,47.5,405.769,47.5z"/>
	</g>
</g>
<g>
</g>
<g>
</g>
<g>
</g>
<g>
</g>
<g>
</g>
<g>
</g>
<g>
</g>
<g>
</g>
<g>
</g>
<g>
</g>
<g>
</g>
<g>
</g>
<g>
</g>
<g>
</g>
<g>
</g>
</svg>