<svg width="14" height="14" viewBox="0 0 14 14" fill="none" xmlns="http://www.w3.org/2000/svg">
<path d="M11.5109 5.39149C13.5109 8.20794 11.9809 11.4339 11.2409 12.6923C11.1324 12.8683 10.9866 13.0185 10.8139 13.1324C10.6411 13.2462 10.4456 13.321 10.2409 13.3514C8.79087 13.6011 5.18087 13.8808 3.24087 11.0643C1.33087 8.40769 1.41087 3.73359 1.58087 1.5064C1.58757 1.34047 1.63363 1.1785 1.71527 1.03382C1.79691 0.889146 1.91178 0.765902 2.05043 0.674235C2.18908 0.582567 2.34754 0.525098 2.51278 0.506557C2.67802 0.488016 2.84531 0.508933 3.00087 0.567587C5.15087 1.18681 9.63087 2.73485 11.5109 5.39149Z" stroke="black" stroke-linecap="round" stroke-linejoin="round"/>
<path d="M4.77087 4.46265C7.0614 7.15851 9.07173 10.0798 10.7709 13.1816" stroke="black" stroke-linecap="round" stroke-linejoin="round"/>
</svg>
