<svg width="33" height="33" viewBox="0 0 33 33" fill="none" xmlns="http://www.w3.org/2000/svg">
<g clip-path="url(#clip0_100_916)">
<path d="M22.3929 24.75V29.4643C22.3929 30.0894 22.1445 30.6891 21.7025 31.131C21.2604 31.573 20.6609 31.8214 20.0357 31.8214H3.53573C2.91057 31.8214 2.31103 31.573 1.86898 31.131C1.42693 30.6891 1.17859 30.0894 1.17859 29.4643V3.53573C1.17859 2.91057 1.42693 2.31103 1.86898 1.86898C2.31103 1.42693 2.91057 1.17859 3.53573 1.17859H20.0357C20.6609 1.17859 21.2604 1.42693 21.7025 1.86898C22.1445 2.31103 22.3929 2.91057 22.3929 3.53573V8.25002" stroke="black" stroke-linecap="round" stroke-linejoin="round"/>
<path d="M15.3215 16.5H31.8215" stroke="black" stroke-linecap="round" stroke-linejoin="round"/>
<path d="M27.1072 11.7858L31.8215 16.5001L27.1072 21.2143" stroke="black" stroke-linecap="round" stroke-linejoin="round"/>
</g>
<defs>
<clipPath id="clip0_100_916">
<rect width="33" height="33" fill="white"/>
</clipPath>
</defs>
</svg>
