<svg id="Layer_1" height="512" viewBox="0 0 120 120" width="512" xmlns="http://www.w3.org/2000/svg"><g fill="#50c8ef"><path d="m48.837 110c-21.415 0-38.837-17.422-38.837-38.837 0-21.414 17.422-38.836 38.837-38.836 21.414 0 38.836 17.422 38.836 38.836 0 21.415-17.422 38.837-38.836 38.837zm0-63.148c-13.406 0-24.313 10.906-24.313 24.312s10.906 24.313 24.313 24.313c13.405 0 24.313-10.906 24.313-24.313-.001-13.406-10.908-24.312-24.313-24.312z"/><path d="m110 48.837h-14.524v-24.313h-24.313v-14.524h38.837z"/><path d="m79.689 10.723h14.524v44.653h-14.524z" transform="matrix(.707 .707 -.707 .707 48.833 -51.802)"/></g></svg>