<?xml version="1.0" encoding="UTF-8"?>
<svg xmlns="http://www.w3.org/2000/svg" xmlns:xlink="http://www.w3.org/1999/xlink" version="1.1" id="Capa_1" x="0px" y="0px" viewBox="0 0 512 512" style="enable-background:new 0 0 512 512;" xml:space="preserve" width="512" height="512">
<g>
	<g>
		<path style="fill:#EAF6FF;" d="M203.662,468.332H26.755c-10.634,0-19.255-8.621-19.255-19.255V121.024&#10;&#9;&#9;&#9;c0-10.634,8.621-19.255,19.255-19.255h176.907c10.634,0,19.255,8.621,19.255,19.255v328.053&#10;&#9;&#9;&#9;C222.916,459.711,214.296,468.332,203.662,468.332z"/>
		<path style="fill:#D8ECFE;" d="M222.92,121.02v328.06c0,10.63-8.62,19.25-19.26,19.25h-39.4c10.63,0,19.25-8.62,19.25-19.25&#10;&#9;&#9;&#9;V121.02c0-10.63-8.62-19.25-19.25-19.25h39.4C214.3,101.77,222.92,110.39,222.92,121.02z"/>
		<path style="fill:#FEE97D;" d="M172.348,361.688H58.068c-6.166,0-11.164,4.998-11.164,11.164v45.346&#10;&#9;&#9;&#9;c0,6.166,4.998,11.164,11.164,11.164h114.28c6.166,0,11.164-4.998,11.164-11.164v-45.346&#10;&#9;&#9;&#9;C183.513,366.687,178.514,361.688,172.348,361.688z"/>
		<g>
			<path style="fill:#8AC9FE;" d="M161.587,164.068H68.83c-10.425,0-18.877-8.451-18.877-18.877V52.435&#10;&#9;&#9;&#9;&#9;c0-10.425,8.451-18.877,18.877-18.877h92.757c10.425,0,18.877,8.451,18.877,18.877v92.757&#10;&#9;&#9;&#9;&#9;C180.463,155.617,172.012,164.068,161.587,164.068z"/>
		</g>
		<path style="fill:#EAF6FF;" d="M485.245,468.332H308.338c-10.634,0-19.255-8.621-19.255-19.255V121.024&#10;&#9;&#9;&#9;c0-10.634,8.621-19.255,19.255-19.255h176.907c10.634,0,19.255,8.621,19.255,19.255v328.053&#10;&#9;&#9;&#9;C504.5,459.711,495.879,468.332,485.245,468.332z"/>
		<path style="fill:#D8ECFE;" d="M504.5,121.02v328.06c0,10.63-8.62,19.25-19.25,19.25h-39.41c10.64,0,19.26-8.62,19.26-19.25&#10;&#9;&#9;&#9;V121.02c0-10.63-8.62-19.25-19.26-19.25h39.41C495.88,101.77,504.5,110.39,504.5,121.02z"/>
		<g>
			<path style="fill:#FEE97D;" d="M368.298,217.377h-28.647c-6.166,0-11.164,4.998-11.164,11.164v82.04&#10;&#9;&#9;&#9;&#9;c0,6.166,4.998,11.164,11.164,11.164h28.647c6.166,0,11.164-4.998,11.164-11.164v-82.04&#10;&#9;&#9;&#9;&#9;C379.463,222.375,374.464,217.377,368.298,217.377z"/>
			<path style="fill:#FEE97D;" d="M453.932,217.377h-27.265c-6.166,0-11.164,4.998-11.164,11.164v82.04&#10;&#9;&#9;&#9;&#9;c0,6.166,4.998,11.164,11.164,11.164h27.265c6.166,0,11.164-4.998,11.164-11.164v-82.04&#10;&#9;&#9;&#9;&#9;C465.096,222.375,460.098,217.377,453.932,217.377z"/>
		</g>
		<g>
			<path style="fill:#D9B1EE;" d="M443.17,164.068h-92.757c-10.425,0-18.877-8.451-18.877-18.877V52.435&#10;&#9;&#9;&#9;&#9;c0-10.425,8.451-18.877,18.877-18.877h92.757c10.425,0,18.877,8.451,18.877,18.877v92.757&#10;&#9;&#9;&#9;&#9;C462.047,155.617,453.595,164.068,443.17,164.068z"/>
		</g>
		<g>
			<path style="fill:#60B7FF;" d="M180.46,52.43v92.76c0,10.43-8.45,18.88-18.87,18.88h-35.03c10.43,0,18.88-8.45,18.88-18.88V52.43&#10;&#9;&#9;&#9;&#9;c0-10.42-8.45-18.87-18.88-18.87h35.03C172.01,33.56,180.46,42.01,180.46,52.43z"/>
		</g>
		<g>
			<path style="fill:#C997E8;" d="M462.05,52.43v92.76c0,10.43-8.45,18.88-18.88,18.88h-35.02c10.42,0,18.88-8.45,19.44-18.88V52.43&#10;&#9;&#9;&#9;&#9;c-0.56-10.42-9.02-18.87-19.44-18.87h35.02C453.6,33.56,462.05,42.01,462.05,52.43z"/>
		</g>
	</g>
	<g>
		<path style="fill:none;stroke:#000000;stroke-width:15;stroke-linecap:round;stroke-linejoin:round;stroke-miterlimit:10;" d="&#10;&#9;&#9;&#9;M180.46,101.77h23.2c10.64,0,19.26,8.62,19.26,19.25v328.06c0,10.63-8.62,19.25-19.26,19.25H26.75&#10;&#9;&#9;&#9;c-10.63,0-19.25-8.62-19.25-19.25V121.02c0-10.63,8.62-19.25,19.25-19.25h23.2"/>
		
			<line style="fill:none;stroke:#000000;stroke-width:15;stroke-linecap:round;stroke-linejoin:round;stroke-miterlimit:10;" x1="90.069" y1="228.272" x2="140.348" y2="228.272"/>
		
			<line style="fill:none;stroke:#000000;stroke-width:15;stroke-linecap:round;stroke-linejoin:round;stroke-miterlimit:10;" x1="46.904" y1="262.109" x2="183.513" y2="262.109"/>
		
			<line style="fill:none;stroke:#000000;stroke-width:15;stroke-linecap:round;stroke-linejoin:round;stroke-miterlimit:10;" x1="46.904" y1="295.946" x2="183.513" y2="295.946"/>
		<path style="fill:none;stroke:#000000;stroke-width:15;stroke-linecap:round;stroke-linejoin:round;stroke-miterlimit:10;" d="&#10;&#9;&#9;&#9;M172.348,361.688H58.068c-6.166,0-11.164,4.998-11.164,11.164v45.346c0,6.166,4.998,11.164,11.164,11.164h114.28&#10;&#9;&#9;&#9;c6.166,0,11.164-4.998,11.164-11.164v-45.346C183.513,366.687,178.514,361.688,172.348,361.688z"/>
		<g>
			<g>
				<path style="fill:none;stroke:#000000;stroke-width:15;stroke-linecap:round;stroke-linejoin:round;stroke-miterlimit:10;" d="&#10;&#9;&#9;&#9;&#9;&#9;M85.111,136.933l28.628-75.167c0.585-1.43,2.61-1.432,3.197-0.003l28.368,75.17"/>
				
					<line style="fill:none;stroke:#000000;stroke-width:15;stroke-linecap:round;stroke-linejoin:round;stroke-miterlimit:10;" x1="94.04" y1="118.213" x2="136.521" y2="118.213"/>
			</g>
			<path style="fill:none;stroke:#000000;stroke-width:15;stroke-linecap:round;stroke-linejoin:round;stroke-miterlimit:10;" d="&#10;&#9;&#9;&#9;&#9;M49.953,66.707V52.435c0-10.425,8.451-18.877,18.877-18.877h92.757c10.425,0,18.877,8.451,18.877,18.877v92.757&#10;&#9;&#9;&#9;&#9;c0,10.425-8.451,18.877-18.877,18.877H68.83c-10.425,0-18.877-8.451-18.877-18.877V101.77"/>
		</g>
		<path style="fill:none;stroke:#000000;stroke-width:15;stroke-linecap:round;stroke-linejoin:round;stroke-miterlimit:10;" d="&#10;&#9;&#9;&#9;M422.148,468.33H308.34c-10.64,0-19.26-8.62-19.26-19.25V121.02c0-10.63,8.62-19.25,19.26-19.25h23.2"/>
		<path style="fill:none;stroke:#000000;stroke-width:15;stroke-linecap:round;stroke-linejoin:round;stroke-miterlimit:10;" d="&#10;&#9;&#9;&#9;M462.05,101.77h23.2c10.63,0,19.25,8.62,19.25,19.25v328.06c0,10.63-8.62,19.25-19.25,19.25h-27.993"/>
		<g>
			
				<line style="fill:none;stroke:#000000;stroke-width:15;stroke-linecap:round;stroke-linejoin:round;stroke-miterlimit:10;" x1="328.487" y1="361.688" x2="465.096" y2="361.688"/>
			
				<line style="fill:none;stroke:#000000;stroke-width:15;stroke-linecap:round;stroke-linejoin:round;stroke-miterlimit:10;" x1="328.487" y1="395.526" x2="465.096" y2="395.526"/>
			
				<line style="fill:none;stroke:#000000;stroke-width:15;stroke-linecap:round;stroke-linejoin:round;stroke-miterlimit:10;" x1="373.961" y1="429.363" x2="420.769" y2="429.363"/>
		</g>
		<g>
			<path style="fill:none;stroke:#000000;stroke-width:15;stroke-linecap:round;stroke-linejoin:round;stroke-miterlimit:10;" d="&#10;&#9;&#9;&#9;&#9;M368.298,217.377h-28.647c-6.166,0-11.164,4.998-11.164,11.164v82.04c0,6.166,4.998,11.164,11.164,11.164h28.647&#10;&#9;&#9;&#9;&#9;c6.166,0,11.164-4.998,11.164-11.164v-82.04C379.463,222.375,374.464,217.377,368.298,217.377z"/>
			<path style="fill:none;stroke:#000000;stroke-width:15;stroke-linecap:round;stroke-linejoin:round;stroke-miterlimit:10;" d="&#10;&#9;&#9;&#9;&#9;M453.932,217.377h-27.265c-6.166,0-11.164,4.998-11.164,11.164v82.04c0,6.166,4.998,11.164,11.164,11.164h27.265&#10;&#9;&#9;&#9;&#9;c6.166,0,11.164-4.998,11.164-11.164v-82.04C465.096,222.375,460.098,217.377,453.932,217.377z"/>
		</g>
		<g>
			<g>
				<path style="fill:none;stroke:#000000;stroke-width:15;stroke-linecap:round;stroke-linejoin:round;stroke-miterlimit:10;" d="&#10;&#9;&#9;&#9;&#9;&#9;M413.213,78.236c0,9.689-7.854,17.543-17.543,17.543c-4.805,0-22.146,0.078-22.146,0.078s0-12.737,0-17.621&#10;&#9;&#9;&#9;&#9;&#9;c0-4.011,0-17.543,0-17.543s16.468,0,22.146,0C405.359,60.693,413.213,68.547,413.213,78.236z"/>
				<path style="fill:none;stroke:#000000;stroke-width:15;stroke-linecap:round;stroke-linejoin:round;stroke-miterlimit:10;" d="&#10;&#9;&#9;&#9;&#9;&#9;M420.059,116.321c0,11.334-9.188,20.522-20.522,20.522c-5.621,0-26.014,0.091-26.014,0.091s0-14.899,0-20.612&#10;&#9;&#9;&#9;&#9;&#9;c0-4.692,0-20.522,0-20.522s19.372,0,26.014,0C410.872,95.8,420.059,104.987,420.059,116.321z"/>
			</g>
			<path style="fill:none;stroke:#000000;stroke-width:15;stroke-linecap:round;stroke-linejoin:round;stroke-miterlimit:10;" d="&#10;&#9;&#9;&#9;&#9;M443.17,164.068h-92.757c-10.425,0-18.877-8.451-18.877-18.877V52.435c0-10.425,8.451-18.877,18.877-18.877h92.757&#10;&#9;&#9;&#9;&#9;c10.425,0,18.877,8.451,18.877,18.877v92.757C462.047,155.617,453.595,164.068,443.17,164.068z"/>
		</g>
		<g>
			<g>
				
					<line style="fill:none;stroke:#000000;stroke-width:15;stroke-linecap:round;stroke-linejoin:round;" x1="256" y1="8.89" x2="256" y2="24.89"/>
				
					<line style="fill:none;stroke:#000000;stroke-width:15;stroke-linecap:round;stroke-linejoin:round;stroke-dasharray:32.7961,37.9205;" x1="256" y1="62.81" x2="256" y2="468.15"/>
				
					<line style="fill:none;stroke:#000000;stroke-width:15;stroke-linecap:round;stroke-linejoin:round;" x1="256" y1="487.11" x2="256" y2="503.11"/>
			</g>
		</g>
	</g>
</g>















</svg>
