<svg id="_x33_0" enable-background="new 0 0 64 64" height="512" viewBox="0 0 64 64" width="512" xmlns="http://www.w3.org/2000/svg"><g><g><g><path d="m27.82 6.92-16.25 2.57 1.43-6.49z" fill="#e6e9ed"/></g><g><path d="m47 12-3.53 14.7-2.61-16.33z" fill="#e6e9ed"/></g><g><path d="m36.14 57.24-1.14 4.76-9.83-2.68z" fill="#e6e9ed"/></g><g><path d="m9.79 55.12-7.79-2.12 4.11-18.69z" fill="#e6e9ed"/></g><g><path d="m40 5-38 6 9 51 37-7z" fill="#f0d0b4"/></g><g><path d="m36 5.63v3.37c0 .55-.45 1-1 1h-2c-.55 0-1-.45-1-1v-2.74-3.26c0-.55.45-1 1-1h2c.55 0 1 .45 1 1z" fill="#5cd6b3"/></g><g><path d="m48 36v6h-2.08-11.55c-.12 0-.25-.01-.37-.04v-5.96z" fill="#ff826e"/></g><g><path d="m48 30v6h-14v-5.96c.12-.03.25-.04.37-.04h9.63z" fill="#5cd6b3"/></g><g><path d="m56 30v12h-8v-6-6z" fill="#ffeaa7"/></g><g><path d="m62 33v6c0 1.66-1.34 3-3 3h-3v-12h3c1.66 0 3 1.34 3 3z" fill="#aab2bd"/></g><g><path d="m34 36v5.96c-.12-.02-.24-.05-.35-.09l-11.72-4.51c-.56-.22-.93-.76-.93-1.36s.37-1.14.93-1.36l11.72-4.51c.11-.04.23-.07.35-.09z" fill="#aab2bd"/></g></g><g><path d="m59 29h-14.147l-.362-2.261 3.709-15.456-6.456-1.709-.914-5.718-3.83.605v-1.461c0-1.103-.897-2-2-2h-2c-1.103 0-2 .897-2 2v2.409l-3.127.494-15.625-4.136-1.505 6.84-9.904 1.564 4.255 24.114-4.275 19.43 8.093 2.207 1.279 7.249 14.938-2.826 10.603 2.892 1.231-5.13 12.178-2.304-2.048-12.803h11.907c2.206 0 4-1.794 4-4v-6c0-2.206-1.794-4-4-4zm-24 12v-4h12v4zm-12.707-4.573c-.175-.069-.293-.239-.293-.427s.118-.358.292-.426l2.708-1.041v2.935zm4.707-2.663 6-2.308v9.087l-6-2.307zm20 1.236h-12v-4h12zm2-4h2v10h-2zm4 0h2v10h-2zm-7.2-18.283-2.131 8.882-1.578-9.864zm-12.8-9.717h2l.001 6h-2.001zm-19.248 1.233 9.225 2.442-10.113 1.597zm-10.571 48.052 2.824-12.835 2.522 14.294zm31.087 8.479-4.65-1.268 5.191-.982zm12.591-6.566-35.05 6.631-8.647-49 27.838-4.396v1.567c0 1.103.897 2 2 2h2c1.103 0 2-.897 2-2v-2.514l2.17-.342 3.657 22.856h-8.456c-.369 0-.731.067-1.077.2l-11.721 4.508c-.941.362-1.573 1.284-1.573 2.292s.632 1.93 1.574 2.293l11.717 4.506c.345.134.709.201 1.081.201h10.696zm14.141-15.198c0 1.103-.897 2-2 2h-2v-10h2c1.103 0 2 .897 2 2z"/><path d="m9.95 20.5h5.099v2h-5.099z" transform="matrix(.981 -.196 .196 .981 -3.974 2.869)"/><path d="m18.869 17.5h17.263v2h-17.263z" transform="matrix(.985 -.174 .174 .985 -2.797 5.062)"/><path d="m10.811 24h21.378v2h-21.378z" transform="matrix(.982 -.187 .187 .982 -4.298 4.464)"/><path d="m11.901 30h10.198v2h-10.198z" transform="matrix(.981 -.196 .196 .981 -5.75 3.936)"/></g></g></svg>