<svg id="Layer_1" enable-background="new 0 0 100 100" viewBox="0 0 100 100" xmlns="http://www.w3.org/2000/svg"><g><path d="m77.5423126 14.7580643c-.3880539 0-.8190002-.1296835-1.2110443-.3651085-8.9661026-4.6930389-16.7760315-6.6831784-26.1660995-6.6831784-9.3012848 0-18.1267319 2.2415261-26.2299442 6.66223-.3271999.1955223-.7352047.2838068-1.2479515.2838068-.9706306 0-1.8624516-.536191-2.3871708-1.4339981-.6424313-1.2160301-.1835518-2.7727289 1.0663967-3.5079327 8.8643512-4.7803264 18.5307445-7.2138834 28.6969203-7.2138834 10.1950989 0 19.0285301 2.2325478 28.6410561 7.2393208.8140106.3641109 1.1731339 1.0818577 1.3237686 1.5123072.1426468.6948032.0568542 1.4489613-.2334366 2.0275478-.3700943.8838415-1.305809 1.4788885-2.2524948 1.4788885z"/><path d="m39.5421104 96.5807419c-.6703606 0-1.3856163-.3082428-1.7776566-.7666245-4.0600853-4.0635757-6.2706871-6.6926575-9.5895824-12.6047211-3.2560482-5.8207855-4.9768467-12.9598465-4.9768467-20.6450806 0-14.1938362 12.0974579-25.7416344 26.967144-25.7416344 14.8706818 0 26.9681396 11.5477982 26.9681396 25.7416344 0 1.4893646-1.166153 2.6560135-2.6555099 2.6560135-1.4893646 0-2.656517-1.1666489-2.656517-2.6560135 0-11.3213501-9.7601624-20.5318565-21.7578621-20.5318565-5.9694252 0-11.7343445 2.3637276-15.8173752 6.4846611-3.8146839 3.8505974-5.8886185 8.8793182-5.8387394 14.1589241 0 6.7884178 1.4933529 13.037159 4.3204479 18.0613899 3.088459 5.4337311 5.1204948 7.6273727 8.7376633 11.3457947.9397049 1.0125275.9516754 2.6186066.0179558 3.6625519-.638443.5461655-1.3088035.834961-1.9412613.834961z"/><path d="m63.7519875 97.5c-.2404099 0-.4479065 0-.5965424-.049881-7.6503181-2.1153336-12.6241684-4.9080124-17.790554-9.9751358-6.5569878-6.4567337-10.3178024-15.499649-10.3178024-24.8084145 0-7.7730179 6.6447716-14.0965767 14.8118286-14.0965767s14.8118286 6.3235588 14.8118286 14.0965767c0 4.9005318 4.3074799 8.8872948 9.6025467 8.8872948 5.294075 0 9.6015549-3.986763 9.6015549-8.8872948 0-17.6863098-15.2597351-32.0751724-34.0159302-32.0751724-13.2935371 0-25.482769 7.4029217-31.0531654 18.8594418-1.8315277 3.8790283-2.7582645 8.2877617-2.7582645 13.1134758 0 3.7194214.3242092 9.5292282 3.1293583 17.0094604.2304382.6135025.20051 1.3551941-.0798054 1.9836578-.3002663.6010284-.8299732 1.0843506-1.4325008 1.2853622-.2813129.067337-.6164951.1516266-.9017982.1516266-1.1013107 0-2.0470009-.655899-2.4101143-1.6714172-2.3033752-5.9105682-3.5154152-12.3877487-3.5154152-18.7586899 0-5.6746407 1.1003132-10.8534927 3.2720098-15.3924103 6.3514891-13.2995186 20.3842201-21.8925343 35.7496948-21.8925343 21.6291809 0 39.2262039 16.7261524 39.2262039 37.2849426 0 7.7730179-6.6447678 14.0970764-14.8118286 14.0970764s-14.8118248-6.3240585-14.8118248-14.0970764c0-4.900032-4.3074837-8.886795-9.6025505-8.886795-5.2940712 0-9.6015511 3.986763-9.6015511 8.886795 0 7.980011 3.1173859 15.4921646 8.7775612 21.1523438 4.5349274 4.4301834 8.8414116 6.8502731 15.3654785 8.6394043.6843262.1800613 1.2429657.6010284 1.5831299 1.1875992.3411713.5875626.430954 1.2833633.2533875 1.9597092-.2952796 1.1806222-1.3157875 1.9966317-2.4849349 1.9966317z"/><path d="m73.1490402 87.6934509c-5.8157959 0-10.6380196-1.3776398-14.7419968-4.2112198-7.081707-4.8202286-11.3063889-12.6381378-11.3063889-20.9179153 0-1.4888649 1.1671486-2.6555138 2.6565094-2.6555138 1.4893646 0 2.6555176 1.1666489 2.6555176 2.6555138 0 6.6462708 3.3797455 12.8461304 9.0399208 16.5839996 3.3099174 2.2420273 7.2054024 3.3353577 11.9009361 3.3353577 1.0125275 0 2.8919373-.1102295 4.8591385-.4209747l.1566162-.0249405.1426468-.0713196c.0289307 0 .0917816.0064774.1536255.0064774 1.2070541 0 2.2834244.9182587 2.3512573 2.0046082.0828018.7491684-.0778046 1.4404831-.4588776 2.0504913-.349144.558136-.9147644.9187546-1.6838837 1.0723801-1.7786558.3950347-3.697975.5930556-5.7250212.5930556z"/><path d="m9.9184551 39.4786949c-.9367123 0-1.8415022-.490303-2.4929118-1.349205-.4090009-.8788528-.3162274-1.8624535.2543788-2.6465378 4.8012753-6.7420349 10.7946377-11.9617882 17.8184853-15.5230904 7.4089069-3.8052082 15.9021664-5.8148003 24.565012-5.8148003 8.8244476 0 17.2807961 1.9736805 24.4532814 5.7075615 7.1106339 3.605196 13.1030045 8.7910309 17.8224716 15.4173508.3930435.6324539.5736008 1.3781319.4469147 1.9437523-.1665955.7506676-.5686111 1.3881111-1.0763702 1.7048378-.4788361.3396683-1.0254974.5217247-1.5153046.5217247-.1316757 0-.2583694-.0134659-.3770752-.0394058-.7501678-.1670914-1.3876114-.5696068-1.7048416-1.07687-4.1259232-5.8207855-9.6205063-10.5931301-15.9241104-13.8496761-6.6258163-3.4161568-14.2761345-5.2217484-22.1249657-5.2217484-7.9525795 0-15.6048927 1.8065891-22.1299591 5.2242413-6.2617073 3.18223-11.6435642 7.8593063-15.9839649 13.8945694l-.034915.0483818-.0289288.0518723c-.3561306.6399383-1.072381 1.0070419-1.9671965 1.0070419z"/></g></svg>