<svg fill="none" height="24" viewBox="0 0 24 24" width="24" xmlns="http://www.w3.org/2000/svg"><path clip-rule="evenodd" d="m12 1c-6.07513 0-11 4.92487-11 11 0 6.0751 4.92487 11 11 11 6.0751 0 11-4.9249 11-11 0-6.07513-4.9249-11-11-11zm0 6c-1.1046 0-2 .89543-2 2h-2c0-2.20914 1.79086-4 4-4 2.2091 0 4 1.79086 4 4 0 1.658-1.0086 3.0782-2.4417 3.6848-.1956.0828-.3554.1968-.4541.3082-.0935.1058-.1042.1735-.1042.207v1.8h-2v-1.8c0-1.2631 1.0245-2.0377 1.7787-2.357.7195-.3045 1.2213-1.01633 1.2213-1.843 0-1.10457-.8954-2-2-2zm1 12v-2h-2v2z" fill="#000" fill-rule="evenodd"/></svg>