<svg width="24" height="23" viewBox="0 0 24 23" fill="none" xmlns="http://www.w3.org/2000/svg">
<path d="M5.29908 10.6902C5.23382 10.2696 5.19996 9.83879 5.19996 9.4C5.19996 4.76081 8.98551 1 13.6552 1C18.3249 1 22.1105 4.76081 22.1105 9.4C22.1105 10.448 21.9174 11.4512 21.5645 12.3762C21.4912 12.5684 21.4544 12.6644 21.4378 12.7394C21.4213 12.8138 21.4149 12.866 21.4132 12.9422C21.4114 13.0189 21.4218 13.1036 21.4427 13.2727L21.8653 16.7064C21.9111 17.0781 21.934 17.264 21.8721 17.3991C21.8179 17.5175 21.7218 17.6115 21.6022 17.663C21.4657 17.7217 21.2803 17.6945 20.9098 17.6402L17.5653 17.1499C17.3906 17.1243 17.3034 17.1115 17.2238 17.112C17.1451 17.1125 17.0907 17.1182 17.0137 17.1344C16.9359 17.1508 16.8364 17.1881 16.6377 17.2625C15.7102 17.6099 14.705 17.8 13.6552 17.8C13.2161 17.8 12.7849 17.7667 12.3638 17.7027M6.91316 22C10.0263 22 12.55 19.4145 12.55 16.225C12.55 13.0355 10.0263 10.45 6.91316 10.45C3.80001 10.45 1.27632 13.0355 1.27632 16.225C1.27632 16.8661 1.37829 17.4828 1.56653 18.059C1.6461 18.3026 1.68588 18.4244 1.69894 18.5076C1.71257 18.5945 1.71496 18.6433 1.70988 18.731C1.70502 18.8151 1.68398 18.9102 1.64191 19.1002L1 22L4.14454 21.5705C4.31618 21.5471 4.402 21.5354 4.47694 21.5359C4.55585 21.5364 4.59773 21.5407 4.67512 21.5562C4.74861 21.5708 4.85787 21.6093 5.07638 21.6865C5.65212 21.8896 6.27007 22 6.91316 22Z" stroke="#7D54D6" stroke-width="2" stroke-linecap="round" stroke-linejoin="round"/>
</svg>
