<svg viewBox="0 0 295 270" fill="none" xmlns="http://www.w3.org/2000/svg">
<g clip-path="url(#clip0_124_119)">
<path d="M189 215.623L191.835 221.977C189.53 221.61 187.387 223.577 187.339 226.104C187.291 228.63 189.346 231.259 191.651 231.618C191.21 233.579 189.31 234.444 187.66 235.237C186.011 236.03 184.233 237.345 184.355 239.435C184.454 241.113 185.842 242.595 187.316 243.19C188.79 243.786 190.337 243.695 191.83 243.595C189.568 245.961 189.347 250.408 191.334 253.598C193.321 256.789 197.289 258.359 200.26 257.131C198.161 259.742 198.617 264.522 201.222 267.217C203.849 269.933 207.655 270.195 210.983 269.909C219.456 269.193 227.531 265.994 234.195 260.713C236.739 258.693 239.115 256.316 240.566 253.216C242.017 250.116 242.445 246.192 241.093 242.664C241.457 247.083 245.882 250.573 249.862 250.769C253.843 250.964 257.318 248.723 260.271 246.167C264.198 242.768 267.835 238.004 267.295 232.126C267.029 229.215 265.757 226.417 264.51 223.706L262.092 218.45C261.116 216.328 260.118 214.17 258.649 212.39C257.18 210.609 255.141 209.231 253.101 209.244C253.567 207.113 254.036 204.903 253.645 202.639C253.254 200.375 251.757 198.031 249.721 197.501C247.13 196.826 244.933 199.217 242.328 198.992C239.82 198.775 237.748 196.259 235.313 195.262C234.31 194.829 233.203 194.697 232.127 194.883C231.05 195.069 230.052 195.565 229.253 196.31C227.71 197.816 227.066 200.361 227.62 202.77C228.105 204.879 229.397 206.74 230.18 208.774C230.964 210.809 231.086 213.425 229.58 214.536C227.764 215.877 224.999 214.053 223.58 211.845C222.161 209.638 221.346 206.965 219.551 205.109C217.433 202.918 214.118 202.404 211.937 203.929C209.756 205.455 208.922 208.87 210.022 211.774C210.921 214.148 212.98 216.549 212.266 218.785C211.511 221.148 208.208 220.848 206.216 219.179C204.223 217.509 202.901 214.994 200.933 213.286C198.934 211.553 196.324 210.793 194.033 211.278C192.87 211.548 191.795 212.105 190.905 212.9C190.015 213.695 189.34 214.701 188.942 215.825" fill="#E6E6E6"/>
<path d="M234.895 197.766L229.014 200.498C228.13 200.935 227.127 201.07 226.159 200.883C225.305 200.681 224.728 200.159 224.576 199.45L223.207 193.06C222.949 191.855 223.948 190.429 225.582 189.67L228.83 188.161C230.464 187.402 232.199 187.559 232.954 188.533L236.956 193.7C237.4 194.273 237.427 195.051 237.031 195.833C236.549 196.693 235.799 197.372 234.895 197.766Z" fill="#3F3D56"/>
<path d="M52.513 79.6602C58.0426 64.5306 66.6719 50.7222 77.8482 39.1191C87.3304 29.2787 102.088 29.6876 102.088 29.6876L102.172 29.5831C105.724 25.2046 110.49 21.9721 115.873 20.2912C121.255 18.6103 127.014 18.5558 132.428 20.1346C133.835 20.5382 134.917 20.7172 135.432 20.5374C144.816 17.254 144.375 9.84327 152.472 3.8732C166.648 -6.58004 213.671 5.39394 220.301 24.6291C225.675 40.2188 249.663 47.775 258.626 59.6999C260.027 61.5645 261.402 63.4507 262.75 65.3585C263.383 66.2449 264.008 67.1379 264.626 68.0375C270.976 77.2299 276.672 86.8564 281.673 96.8463C284.952 103.373 287.802 110.107 290.205 117.004C299.552 144.319 296.355 164.669 270.584 159.641C267.534 159.045 264.556 158.511 261.652 158.04C257.447 157.354 253.388 156.79 249.476 156.348C244.209 155.749 239.197 155.357 234.441 155.171C232.842 155.107 231.272 155.064 229.732 155.042C206.957 154.726 190.063 159.011 177.193 165.663C175.012 166.788 172.944 167.978 170.991 169.233C168.007 171.139 165.159 173.249 162.465 175.546C158.738 178.744 155.3 182.265 152.193 186.068L152.023 186.277C136.969 204.684 132.015 225.062 121.544 228.65C76.7832 243.989 48.4737 188.382 45.5705 133.986C45.4239 131.245 45.343 128.511 45.3276 125.786C45.3185 124.568 45.3245 123.353 45.3456 122.141C45.3915 118.98 45.5309 115.839 45.7644 112.736C45.8515 111.55 45.9527 110.37 46.0677 109.196C46.1946 107.93 46.3325 106.672 46.4919 105.421C47.6306 96.2559 49.6226 87.5357 52.513 79.6602Z" fill="#6C63FF"/>
<path d="M191.25 109.589C187.675 111.252 187.616 118.704 188.737 121.119L190.769 125.49L203.717 119.476L201.686 115.105C200.563 112.691 194.827 107.93 191.25 109.589Z" fill="#3F3D56"/>
<path d="M156.455 172.338C156.227 172.338 156.002 172.283 155.8 172.178C155.598 172.073 155.425 171.92 155.294 171.734C155.163 171.547 155.08 171.332 155.05 171.106C155.021 170.88 155.046 170.651 155.124 170.437C155.188 170.262 155.285 170.101 155.411 169.964C155.537 169.827 155.689 169.717 155.858 169.639L222.726 138.581C222.895 138.503 223.077 138.458 223.263 138.451C223.448 138.443 223.634 138.471 223.808 138.535C223.983 138.599 224.143 138.696 224.28 138.822C224.417 138.948 224.528 139.099 224.606 139.268C224.764 139.608 224.78 139.997 224.651 140.35C224.523 140.702 224.259 140.989 223.919 141.148L157.05 172.206C156.864 172.293 156.661 172.338 156.455 172.338Z" fill="#3F3D56"/>
<path d="M208.761 122.263L189.647 131.141L219.63 195.655L238.744 186.777L208.761 122.263Z" fill="#E6E6E6"/>
<path d="M137.008 41.0511C133.433 42.7149 133.374 50.1671 134.495 52.5817L136.527 56.9523L149.475 50.9383L147.444 46.5677C146.32 44.1541 140.585 39.393 137.008 41.0511Z" fill="#3F3D56"/>
<path d="M217.103 205.183L211.221 207.915C210.337 208.351 209.335 208.486 208.366 208.299C207.512 208.097 206.935 207.576 206.784 206.867L205.415 200.477C205.157 199.271 206.155 197.845 207.79 197.086L211.038 195.577C212.672 194.818 214.407 194.975 215.162 195.95L219.164 201.117C219.608 201.69 219.635 202.467 219.239 203.25C218.757 204.11 218.007 204.789 217.103 205.183Z" fill="#3F3D56"/>
<path d="M199.02 214.152L193.138 216.884C192.254 217.32 191.251 217.455 190.283 217.268C189.429 217.067 188.852 216.545 188.7 215.836L187.332 209.446C187.073 208.24 188.072 206.814 189.706 206.055L192.954 204.546C194.589 203.787 196.323 203.944 197.078 204.919L201.081 210.086C201.525 210.659 201.551 211.436 201.155 212.219C200.673 213.079 199.923 213.758 199.02 214.152Z" fill="#3F3D56"/>
<path d="M159.619 64.6995L140.505 73.5774L201.113 203.984L220.227 195.106L159.619 64.6995Z" fill="#E6E6E6"/>
<path d="M179.452 131.924L177.307 127.206L178.542 126.637L180.68 131.34L211.642 199.969L210.409 200.541" fill="#3F3D56"/>
<path d="M203.642 128.003L201.497 123.285L202.732 122.715L204.87 127.418L235.833 196.047L234.599 196.62" fill="#3F3D56"/>
<path d="M168.641 75.1357L142.742 87.1648C141.093 84.6004 136.123 71.459 137.239 67.56L136.401 63.8418L154.283 55.536L156.677 58.4795C160.23 59.5694 167.147 71.9127 168.641 75.1357Z" fill="#E6E6E6"/>
<path d="M155.031 55.6951L136.577 64.2662C135.896 64.5825 135.17 64.4663 134.957 64.0064C134.926 63.9401 134.907 63.8691 134.9 63.7963L133.945 53.6108C133.904 53.1747 134.278 52.6804 134.848 52.4156L147.086 46.7314C147.656 46.4666 148.275 46.5002 148.582 46.8127L155.753 54.1112C156.12 54.4845 155.92 55.1235 155.308 55.5384C155.22 55.598 155.127 55.6504 155.031 55.6951Z" fill="#E6E6E6"/>
<path d="M169.505 135.495C169.305 135.495 169.106 135.472 168.912 135.425C168.638 135.368 168.381 135.25 168.16 135.078C167.939 134.907 167.761 134.687 167.638 134.436L156.356 110.161C155.889 109.156 156.516 107.871 157.753 107.296L174.273 99.623C175.511 99.0479 176.897 99.3983 177.365 100.403L188.647 124.678C188.759 124.934 188.812 125.212 188.801 125.491C188.789 125.771 188.714 126.043 188.581 126.289C188.291 126.845 187.822 127.287 187.249 127.543L170.729 135.216C170.346 135.397 169.928 135.492 169.505 135.495Z" fill="#3F3D56"/>
<path d="M171.764 139.169L152.65 148.047L182.633 212.561L201.747 203.683L171.764 139.169Z" fill="#E6E6E6"/>
<path d="M148.216 56.7592L142.61 59.3627C141.529 59.8651 140.069 59.0279 139.358 57.4968C138.646 55.9656 138.947 54.3108 140.029 53.8085L145.634 51.205C146.716 50.7026 148.175 51.5397 148.887 53.0709C149.598 54.602 149.297 56.2568 148.216 56.7592Z" fill="#3F3D56"/>
<path d="M154.626 126.322C151.051 127.985 150.993 135.437 152.113 137.852L154.145 142.223L167.093 136.209L165.062 131.838C163.939 129.424 158.204 124.663 154.626 126.322Z" fill="#3F3D56"/>
<path d="M95.2457 111.446C93.9832 112.287 92.6911 110.286 93.9779 109.482C95.2403 108.641 96.5324 110.643 95.2457 111.446Z" fill="#E6E6E6"/>
<path d="M226.659 82.6883C225.397 83.5292 224.105 81.5278 225.391 80.7242C226.654 79.8833 227.946 81.8848 226.659 82.6883Z" fill="#E6E6E6"/>
<path d="M137.089 105.564C135.826 106.405 134.534 104.403 135.821 103.6C137.083 102.759 138.375 104.76 137.089 105.564Z" fill="#E6E6E6"/>
<path d="M95.2457 183.995C93.9832 184.836 92.6911 182.834 93.9779 182.031C95.2403 181.19 96.5324 183.191 95.2457 183.995Z" fill="#E6E6E6"/>
<path d="M159.645 20.2705C158.382 21.1114 157.09 19.11 158.377 18.3064C159.639 17.4656 160.932 19.467 159.645 20.2705Z" fill="#E6E6E6"/>
<path d="M97.534 58.8323C96.2715 59.6732 94.9794 57.6718 96.2661 56.8682C97.5285 56.0273 98.8207 58.0288 97.534 58.8323Z" fill="#E6E6E6"/>
<path d="M186.868 47.7774L186.065 47.6012L186.241 46.798L185.706 46.6807L185.529 47.4839L184.726 47.3081L184.609 47.8434L185.412 48.0195L185.236 48.8225L185.772 48.9398L185.948 48.1365L186.751 48.3127L186.868 47.7774Z" fill="#E6E6E6"/>
<path d="M56.077 114.698L55.2738 114.522L55.4497 113.719L54.9142 113.601L54.738 114.404L53.9345 114.228L53.8171 114.764L54.6207 114.94L54.4448 115.743L54.9802 115.86L55.1564 115.057L55.9596 115.233L56.077 114.698Z" fill="#E6E6E6"/>
<path d="M220.797 148.834C220.129 149.144 219.365 149.176 218.673 148.923C217.981 148.67 217.418 148.153 217.107 147.485L213.801 140.373C213.491 139.705 213.46 138.941 213.713 138.25C213.966 137.559 214.484 136.996 215.151 136.686C215.819 136.376 216.583 136.344 217.275 136.596C217.966 136.848 218.53 137.365 218.841 138.032L222.146 145.145C222.456 145.813 222.488 146.577 222.235 147.268C221.982 147.96 221.465 148.523 220.797 148.834Z" fill="#3F3D56"/>
<path d="M164.571 174.978C163.902 175.287 163.138 175.319 162.446 175.066C161.754 174.813 161.191 174.297 160.88 173.629L157.574 166.516C157.265 165.848 157.233 165.085 157.486 164.394C157.74 163.702 158.257 163.14 158.925 162.83C159.593 162.52 160.356 162.487 161.048 162.739C161.74 162.992 162.303 163.508 162.614 164.175L165.92 171.288C166.229 171.956 166.261 172.72 166.008 173.412C165.755 174.104 165.238 174.667 164.571 174.978Z" fill="#3F3D56"/>
<path d="M215.705 133.294L193.539 143.589C192.128 141.394 187.874 130.147 188.829 126.81L189.298 123.077L202.533 116.586L205.466 119.038C209.598 117.642 215.671 127.877 215.705 133.294Z" fill="#E6E6E6"/>
<path d="M205.414 132.58L199.809 135.183C198.727 135.686 197.081 134.447 196.14 132.423C195.2 130.398 195.314 128.342 196.396 127.84L202.001 125.236C203.083 124.734 204.729 125.972 205.669 127.997C206.61 130.021 206.496 132.077 205.414 132.58Z" fill="#3F3D56"/>
<path d="M157.876 145.976L155.732 141.258L156.966 140.689L159.105 145.392L190.067 214.021L188.833 214.594" fill="#3F3D56"/>
<path d="M179.081 150.026L156.915 160.322C153.645 158.634 148.648 147.589 152.205 143.543L152.674 139.81L165.909 133.319L168.842 135.771C171.883 136.704 177.802 147.268 179.081 150.026Z" fill="#E6E6E6"/>
<path d="M168.334 148.331L162.729 150.935C161.647 151.437 160.103 150.419 159.288 148.665C158.473 146.911 158.69 145.075 159.772 144.573L165.377 141.969C166.459 141.467 168.002 142.485 168.817 144.239C169.632 145.993 169.416 147.829 168.334 148.331Z" fill="#3F3D56"/>
<path d="M55.995 100.602C74.5908 100.602 89.6657 85.5321 89.6657 66.9422C89.6657 48.3524 74.5908 33.2824 55.995 33.2824C37.3993 33.2824 22.3244 48.3524 22.3244 66.9422C22.3244 85.5321 37.3993 100.602 55.995 100.602Z" fill="#FF6584"/>
<path opacity="0.3" d="M194.049 102L214.511 42.2594L192.043 101.285C191.932 101.425 191.855 101.59 191.821 101.765C191.786 101.941 191.793 102.122 191.843 102.294C191.892 102.466 191.981 102.623 192.104 102.754C192.226 102.884 192.378 102.983 192.546 103.043C192.715 103.104 192.895 103.123 193.073 103.099C193.25 103.075 193.419 103.01 193.566 102.908C193.713 102.806 193.833 102.67 193.917 102.513C194.001 102.355 194.047 102.179 194.049 102Z" fill="#F0F0F0"/>
<path d="M246.207 66.3909C242.202 67.7217 237.761 69.029 232.886 70.3127C207.667 76.9503 173.864 82.1278 137.704 84.8919C101.544 87.6561 67.3462 87.6761 41.4112 84.9489C28.7775 83.6202 18.7849 81.7093 11.7112 79.2689C4.22215 76.6855 0.287 73.5722 0.0149284 70.0161C-0.51489 63.0882 13.1604 56.9906 24.7259 53.0953L25.0391 54.0243C9.15663 59.3735 0.616913 65.0264 0.992913 69.9414C1.47159 76.2015 16.2409 81.3159 41.5138 83.9738C67.3917 86.6951 101.526 86.6742 137.629 83.9146C173.732 81.1547 207.473 75.9874 232.636 69.3646C257.21 62.8971 271.031 55.597 270.552 49.3368C270.154 44.1393 259.905 39.693 241.694 36.8165L241.847 35.8482C255.08 37.9383 270.971 41.962 271.53 49.2621C271.802 52.8182 268.386 56.4932 261.376 60.1849C257.381 62.2892 252.304 64.3653 246.207 66.3909Z" fill="#3F3D56"/>
<path d="M256.101 126.09C258.033 126.09 259.6 124.524 259.6 122.593C259.6 120.661 258.033 119.095 256.101 119.095C254.169 119.095 252.603 120.661 252.603 122.593C252.603 124.524 254.169 126.09 256.101 126.09Z" fill="#FF6584"/>
<path d="M278.33 220.86C280.263 220.86 281.829 219.295 281.829 217.363C281.829 215.431 280.263 213.866 278.33 213.866C276.398 213.866 274.832 215.431 274.832 217.363C274.832 219.295 276.398 220.86 278.33 220.86Z" fill="#F2F2F2"/>
<path d="M159.012 242.156C162.779 242.156 165.833 239.103 165.833 235.337C165.833 231.571 162.779 228.518 159.012 228.518C155.245 228.518 152.191 231.571 152.191 235.337C152.191 239.103 155.245 242.156 159.012 242.156Z" fill="#F2F2F2"/>
<path d="M107.035 151.907C108.967 151.907 110.534 150.341 110.534 148.409C110.534 146.478 108.967 144.912 107.035 144.912C105.103 144.912 103.536 146.478 103.536 148.409C103.536 150.341 105.103 151.907 107.035 151.907Z" fill="#3F3D56"/>
<path d="M224.654 156.459L239.749 160.365L249.007 178.544L233.355 179.158L224.654 156.459Z" fill="#E6E6E6"/>
<path d="M189.812 130.252L198.12 138.562L219.221 184.167L215.336 187.523L189.812 130.252Z" fill="#CCCCCC"/>
<path d="M171.748 137.784L172.4 149.515L192.316 195.65L197.408 194.994L171.748 137.784Z" fill="#CCCCCC"/>
<path d="M171.205 185.174L163.075 198.475L169.068 217.975L180.743 207.535L171.205 185.174Z" fill="#E6E6E6"/>
<path d="M243.019 193.347C238.798 193.347 234.171 193.188 229.139 192.869C203.114 191.217 169.403 185.472 134.216 176.695C99.0291 167.917 66.5704 157.155 42.8195 146.39C31.2497 141.146 22.3699 136.182 16.4271 131.636C10.1353 126.823 7.38315 122.628 8.24684 119.168C9.9297 112.426 24.8308 110.951 37.0349 110.901L37.039 111.882C20.2795 111.951 10.3923 114.622 9.1985 119.405C7.67781 125.497 20.0799 135.007 43.2244 145.497C66.9232 156.238 99.3221 166.98 134.453 175.744C169.584 184.507 203.233 190.242 229.202 191.89C254.562 193.501 269.98 190.93 271.501 184.839C272.763 179.781 264.44 172.33 248.065 163.859L248.516 162.988C260.414 169.144 274.225 177.972 272.452 185.076C271.589 188.536 267.188 190.947 259.371 192.24C254.916 192.978 249.443 193.347 243.019 193.347Z" fill="#3F3D56"/>
</g>
<defs>
<clipPath id="clip0_124_119">
<rect width="295" height="270" fill="white"/>
</clipPath>
</defs>
</svg>
